<?xml version="1.0" encoding="UTF-8" standalone="no"?>
<!-- Created with Inkscape (http://www.inkscape.org/) -->

<svg
   width="210mm"
   height="297mm"
   viewBox="0 0 210 297"
   version="1.1"
   id="svg40176"
   inkscape:version="1.2.2 (732a01da63, 2022-12-09)"
   sodipodi:docname="4-module-doc-instances.svg"
   xmlns:inkscape="http://www.inkscape.org/namespaces/inkscape"
   xmlns:sodipodi="http://sodipodi.sourceforge.net/DTD/sodipodi-0.dtd"
   xmlns:xlink="http://www.w3.org/1999/xlink"
   xmlns="http://www.w3.org/2000/svg"
   xmlns:svg="http://www.w3.org/2000/svg">
  <sodipodi:namedview
     id="namedview40178"
     pagecolor="#ffffff"
     bordercolor="#000000"
     borderopacity="0.25"
     inkscape:showpageshadow="2"
     inkscape:pageopacity="0.0"
     inkscape:pagecheckerboard="0"
     inkscape:deskcolor="#d1d1d1"
     inkscape:document-units="mm"
     showgrid="false"
     inkscape:zoom="0.42048261"
     inkscape:cx="407.86467"
     inkscape:cy="514.88456"
     inkscape:window-width="1536"
     inkscape:window-height="890"
     inkscape:window-x="-6"
     inkscape:window-y="-6"
     inkscape:window-maximized="1"
     inkscape:current-layer="layer1" />
  <defs
     id="defs40173">
    <radialGradient
       id="radialGradient3262-5-1"
       gradientUnits="userSpaceOnUse"
       cy="39.160999"
       cx="25.455999"
       gradientTransform="matrix(1,0,0,0.31532,0,26.813)"
       r="19.622"
       inkscape:collect="always">
      <stop
         id="stop3258-75-4"
         style="stop-color:#000000"
         offset="0" />
      <stop
         id="stop3260-8-8"
         style="stop-color:#000000;stop-opacity:0"
         offset="1" />
    </radialGradient>
    <linearGradient
       inkscape:collect="always"
       xlink:href="#linearGradient3281"
       id="linearGradient5487"
       gradientUnits="userSpaceOnUse"
       gradientTransform="matrix(1.2419,0,0,1.2419,-5.0275,-7.209)"
       x1="14.463"
       y1="12.285"
       x2="34.534"
       y2="39.685001" />
    <linearGradient
       id="linearGradient3281"
       y2="39.685001"
       gradientUnits="userSpaceOnUse"
       x2="34.534"
       gradientTransform="matrix(1.2419,0,0,1.2419,-5.0275,-7.209)"
       y1="12.285"
       x1="14.463"
       inkscape:collect="always">
      <stop
         id="stop3266"
         style="stop-color:#c9c9c9"
         offset="0" />
      <stop
         id="stop3276"
         style="stop-color:#f8f8f8"
         offset=".25" />
      <stop
         id="stop3272"
         style="stop-color:#e2e2e2"
         offset=".5" />
      <stop
         id="stop3274"
         style="stop-color:#b0b0b0"
         offset=".75" />
      <stop
         id="stop3268"
         style="stop-color:#c9c9c9"
         offset="1" />
    </linearGradient>
    <radialGradient
       id="radialGradient3262-5-1-8"
       gradientUnits="userSpaceOnUse"
       cy="39.160999"
       cx="25.455999"
       gradientTransform="matrix(1,0,0,0.31532,0,26.813)"
       r="19.622"
       inkscape:collect="always">
      <stop
         id="stop3258-75-4-3"
         style="stop-color:#000000"
         offset="0" />
      <stop
         id="stop3260-8-8-5"
         style="stop-color:#000000;stop-opacity:0"
         offset="1" />
    </radialGradient>
    <radialGradient
       id="radialGradient3262-7"
       gradientUnits="userSpaceOnUse"
       cy="39.160999"
       cx="25.455999"
       gradientTransform="matrix(1,0,0,0.31532,0,26.813)"
       r="19.622"
       inkscape:collect="always">
      <stop
         id="stop3258-0"
         style="stop-color:#000000"
         offset="0" />
      <stop
         id="stop3260-0"
         style="stop-color:#000000;stop-opacity:0"
         offset="1" />
    </radialGradient>
    <marker
       style="overflow:visible"
       id="Arrow1-0"
       refX="0"
       refY="0"
       orient="auto-start-reverse"
       inkscape:stockid="Arrow1"
       markerWidth="4.0606599"
       markerHeight="6.7071061"
       viewBox="0 0 4.0606602 6.7071068"
       inkscape:isstock="true"
       inkscape:collect="always"
       preserveAspectRatio="xMidYMid">
      <path
         style="fill:none;stroke:context-stroke;stroke-width:1;stroke-linecap:butt"
         d="M 3,-3 0,0 3,3"
         id="path5057-88"
         transform="rotate(180,0.125,0)"
         sodipodi:nodetypes="ccc" />
    </marker>
    <marker
       style="overflow:visible"
       id="Arrow1"
       refX="0"
       refY="0"
       orient="auto-start-reverse"
       inkscape:stockid="Arrow1"
       markerWidth="4.0606599"
       markerHeight="6.7071061"
       viewBox="0 0 4.0606602 6.7071068"
       inkscape:isstock="true"
       inkscape:collect="always"
       preserveAspectRatio="xMidYMid">
      <path
         style="fill:none;stroke:context-stroke;stroke-width:1;stroke-linecap:butt"
         d="M 3,-3 0,0 3,3"
         id="path5057"
         transform="rotate(180,0.125,0)"
         sodipodi:nodetypes="ccc" />
    </marker>
    <linearGradient
       inkscape:collect="always"
       xlink:href="#linearGradient3281"
       id="linearGradient40787"
       gradientUnits="userSpaceOnUse"
       gradientTransform="matrix(1.2419,0,0,1.2419,-5.0275,-7.209)"
       x1="14.463"
       y1="12.285"
       x2="34.534"
       y2="39.685001" />
    <linearGradient
       inkscape:collect="always"
       xlink:href="#linearGradient3281"
       id="linearGradient40789"
       gradientUnits="userSpaceOnUse"
       gradientTransform="matrix(1.2419,0,0,1.2419,-5.0275,-7.209)"
       x1="14.463"
       y1="12.285"
       x2="34.534"
       y2="39.685001" />
  </defs>
  <g
     inkscape:label="Ebene 1"
     inkscape:groupmode="layer"
     id="layer1">
    <rect
       style="font-variation-settings:'wght' 806;fill:#fefefe;fill-opacity:1;stroke:none;stroke-width:0.734184;stroke-dasharray:none;stroke-opacity:1"
       id="rect593-1-3-3"
       width="171.61185"
       height="223.29608"
       x="19.042259"
       y="36.572796"
       inkscape:export-filename="everest-runtime-config.png"
       inkscape:export-xdpi="96"
       inkscape:export-ydpi="96" />
    <rect
       style="font-variation-settings:'wght' 600;fill:#244982;fill-opacity:0.247059;stroke:#244982;stroke-width:0.704032;stroke-dasharray:2.11207, 2.11207;stroke-dashoffset:0;stroke-opacity:0.247059"
       id="rect376-2-4-7-6-74"
       width="63.124912"
       height="14.389751"
       x="40.198387"
       y="205.63284" />
    <text
       xml:space="preserve"
       style="font-style:normal;font-variant:normal;font-weight:normal;font-stretch:normal;font-size:3.80916px;font-family:Urbanist;-inkscape-font-specification:'Urbanist, @wght=600';font-variant-ligatures:normal;font-variant-caps:normal;font-variant-numeric:normal;font-variant-east-asian:normal;font-variation-settings:'wght' 600;fill:#000000;fill-opacity:1;stroke:none;stroke-width:0;stroke-dasharray:none;stroke-opacity:0.247059"
       x="44.856899"
       y="222.38962"
       id="text2084-90-5-5-51-2"
       transform="scale(1.0597953,0.94357845)"><tspan
         sodipodi:role="line"
         style="font-style:normal;font-variant:normal;font-weight:normal;font-stretch:normal;font-size:3.80916px;font-family:Urbanist;-inkscape-font-specification:'Urbanist, @wght=806';font-variant-ligatures:normal;font-variant-caps:normal;font-variant-numeric:normal;font-variant-east-asian:normal;font-variation-settings:'wght' 806;fill:#000000;fill-opacity:1;stroke:none;stroke-width:0;stroke-dasharray:none"
         x="44.856899"
         y="222.38962"
         id="tspan8597-28-6">Instance config</tspan></text>
    <text
       xml:space="preserve"
       style="font-style:normal;font-variant:normal;font-weight:normal;font-stretch:normal;font-size:3.40683px;font-family:Urbanist;-inkscape-font-specification:'Urbanist, @wght=600';font-variant-ligatures:normal;font-variant-caps:normal;font-variant-numeric:normal;font-variant-east-asian:normal;font-variation-settings:'wght' 600;fill:#000000;fill-opacity:1;stroke:none;stroke-width:0;stroke-dasharray:none;stroke-opacity:0.247059"
       x="39.667019"
       y="230.14558"
       id="text2084-90-5-5-5-4-1"
       transform="scale(1.0597953,0.94357845)"><tspan
         sodipodi:role="line"
         style="fill:#000000;fill-opacity:1;stroke:none;stroke-width:0;stroke-dasharray:none"
         x="39.667019"
         y="230.14558"
         id="tspan8637-35-65">cfg_publish_number_of_pings: true</tspan></text>
    <text
       xml:space="preserve"
       style="font-style:normal;font-variant:normal;font-weight:normal;font-stretch:normal;font-size:4.21428px;font-family:Urbanist;-inkscape-font-specification:'Urbanist, @wght=600';font-variant-ligatures:normal;font-variant-caps:normal;font-variant-numeric:normal;font-variant-east-asian:normal;font-variation-settings:'wght' 600;fill:#000000;fill-opacity:1;stroke:none;stroke-width:0;stroke-dasharray:none;stroke-opacity:0.247059"
       x="37.692287"
       y="216.52577"
       id="text2084-90-5-5-5-4-8-8"
       transform="scale(1.0597953,0.94357845)"><tspan
         sodipodi:role="line"
         style="fill:#000000;fill-opacity:1;stroke:none;stroke-width:0;stroke-dasharray:none"
         x="37.692287"
         y="216.52577"
         id="tspan8637-35-6-2">instance_id_ping_server</tspan></text>
    <text
       xml:space="preserve"
       style="font-style:normal;font-variant:normal;font-weight:normal;font-stretch:normal;font-size:4.21428px;font-family:Urbanist;-inkscape-font-specification:'Urbanist, @wght=600';font-variant-ligatures:normal;font-variant-caps:normal;font-variant-numeric:normal;font-variant-east-asian:normal;font-variation-settings:'wght' 600;fill:#000000;fill-opacity:1;stroke:none;stroke-width:0;stroke-dasharray:none;stroke-opacity:0.247059"
       x="-127.19334"
       y="30.988209"
       id="text2084-90-5-5-5-4-8-8-35"
       transform="matrix(0,-1.0597953,0.94357845,0,0,0)"><tspan
         sodipodi:role="line"
         style="fill:#000000;fill-opacity:1;stroke:none;stroke-width:0;stroke-dasharray:none"
         x="-127.19334"
         y="30.988209"
         id="tspan8637-35-6-2-1">Instance of</tspan></text>
    <text
       xml:space="preserve"
       style="font-style:normal;font-variant:normal;font-weight:normal;font-stretch:normal;font-size:4.21428px;font-family:Urbanist;-inkscape-font-specification:'Urbanist, @wght=600';font-variant-ligatures:normal;font-variant-caps:normal;font-variant-numeric:normal;font-variant-east-asian:normal;font-variation-settings:'wght' 600;fill:#000000;fill-opacity:1;stroke:none;stroke-width:0;stroke-dasharray:none;stroke-opacity:0.247059"
       x="98.310081"
       y="188.51337"
       id="text2084-90-5-5-5-4-8-8-35-1"
       transform="scale(1.0597953,0.94357845)"><tspan
         sodipodi:role="line"
         style="fill:#000000;fill-opacity:1;stroke:none;stroke-width:0;stroke-dasharray:none"
         x="98.310081"
         y="188.51337"
         id="tspan8637-35-6-2-1-1">Instance of</tspan></text>
    <text
       xml:space="preserve"
       style="font-style:normal;font-variant:normal;font-weight:normal;font-stretch:normal;font-size:4.21428px;font-family:Urbanist;-inkscape-font-specification:'Urbanist, @wght=600';font-variant-ligatures:normal;font-variant-caps:normal;font-variant-numeric:normal;font-variant-east-asian:normal;font-variation-settings:'wght' 600;fill:#000000;fill-opacity:1;stroke:none;stroke-width:0;stroke-dasharray:none;stroke-opacity:0.247059"
       x="74.263878"
       y="251.86533"
       id="text2084-90-5-5-5-4-8-8-35-1-0"
       transform="scale(1.0597953,0.94357845)"><tspan
         sodipodi:role="line"
         style="fill:#000000;fill-opacity:1;stroke:none;stroke-width:0;stroke-dasharray:none"
         x="74.263878"
         y="251.86533"
         id="tspan49273">requirement_ping_server</tspan><tspan
         sodipodi:role="line"
         style="fill:#000000;fill-opacity:1;stroke:none;stroke-width:0;stroke-dasharray:none"
         x="74.263878"
         y="257.13318"
         id="tspan50161">Require if_impl_id_ping of</tspan><tspan
         sodipodi:role="line"
         style="fill:#000000;fill-opacity:1;stroke:none;stroke-width:0;stroke-dasharray:none"
         x="74.263878"
         y="262.40103"
         id="tspan60747">instance_id_ping_server</tspan><tspan
         sodipodi:role="line"
         style="fill:#000000;fill-opacity:1;stroke:none;stroke-width:0;stroke-dasharray:none"
         x="74.263878"
         y="267.66888"
         id="tspan63395">(see definition of modules!)</tspan></text>
    <g
       id="layer1-2-2-6"
       inkscape:label="Layer 1"
       transform="matrix(0.10515791,0,0,0.09362633,41.056525,206.6179)">
      <ellipse
         id="path3254-0-7"
         style="color:#000000;opacity:0.40909;fill:url(#radialGradient3262-5-1)"
         transform="translate(-0.88388,2.4749)"
         cx="25.455845"
         cy="39.161163"
         rx="19.622213"
         ry="6.1871843" />
      <path
         id="path3243-4-9"
         style="color:#000000;fill:url(#linearGradient40787);stroke:#808080"
         d="M 23.25,0.46875 C 22.785,0.5006 22.332,0.57268 21.875,0.625 H 21.844 L 20.75,6.5938 C 18.967,6.9997 17.29,7.6887 15.781,8.625 L 10.875,5.0938 C 9.5487,6.1234 8.3418,7.3243 7.2812,8.625 l 3.4068,4.969 c -1.0347,1.58 -1.8125,3.385 -2.2505,5.281 -10e-5,0.009 -10e-5,0.03 0,0.031 L 2.5,19.844 c -0.1086,0.886 -0.1562,1.803 -0.1562,2.718 0,0.75 0.0206,1.489 0.0937,2.219 l 5.9375,1.063 c 0.4223,2.062 1.2245,3.987 2.344,5.687 l -3.5315,4.844 c 1.0113,1.256 2.1789,2.399 3.4375,3.406 l 5,-3.437 c 1.747,1.114 3.698,1.896 5.813,2.281 l 0.937,5.906 c 0.666,0.061 1.349,0.063 2.031,0.063 0.963,0 1.882,-0.037 2.813,-0.156 l 1.125,-6.032 c 2.007,-0.499 3.893,-1.366 5.531,-2.531 l 4.813,3.5 c 1.248,-1.062 2.389,-2.282 3.374,-3.594 l -3.5,-5.062 c 0.948,-1.637 1.605,-3.443 1.938,-5.375 l 5.906,-0.938 c 0.052,-0.616 0.063,-1.214 0.063,-1.844 0,-1.094 -0.127,-2.167 -0.281,-3.218 l -6,-1.094 C 39.717,16.514 38.946,14.894 37.969,13.438 L 41.5,8.5938 C 40.405,7.2551 39.157,6.0186 37.781,4.9688 l -5.093,3.5 C 31.224,7.6029 29.648,6.9386 27.938,6.5625 L 27,0.625 C 26.147,0.52462 25.286,0.46875 24.406,0.46875 c -0.238,0 -0.482,-0.00748 -0.718,0 -0.116,0.00365 -0.229,-0.00669 -0.344,0 -0.031,0.00181 -0.063,-0.00212 -0.094,0 z m 0.812,15.187 c 0.115,-0.006 0.229,0 0.344,0 3.699,0 6.719,3.02 6.719,6.719 0,3.699 -3.02,6.687 -6.719,6.687 -3.699,0.001 -6.687,-2.988 -6.687,-6.687 0,-3.584 2.804,-6.539 6.343,-6.719 z" />
      <circle
         id="path3283-7-4"
         style="color:#000000;opacity:0.64773;fill:none;stroke:#ffffff;stroke-width:1.6488"
         transform="matrix(0.60652,0,0,0.60652,10.15,7.9368)"
         cx="23.511301"
         cy="23.781593"
         r="12.727922" />
      <path
         id="path3285-6-9"
         sodipodi:nodetypes="ccccccccccccccccccccccccccccccccc"
         style="color:#000000;opacity:0.34659;fill:none;stroke:#ffffff"
         d="m 22.558,1.6501 -0.878,5.779 c -1.671,0.3806 -4.745,1.5444 -6.159,2.422 L 10.849,6.3639 C 9.6054,7.3291 9.5201,7.3945 8.5261,8.6137 l 3.3779,5.0103 c -0.969,1.481 -2.1337,4.121 -2.5518,6.008 0,0 -5.9194,0.998 -5.9194,0.998 -0.1017,0.831 -0.0528,2.609 0.0157,3.294 l 5.6542,1.018 c 0.3958,1.933 1.8773,5.044 2.9263,6.637 l -3.5757,4.724 c 0.9479,1.177 1.1377,1.285 2.3177,2.229 l 4.781,-3.502 c 1.638,1.044 4.889,2.315 6.871,2.676 l 0.784,5.707 c 0.625,0.056 2.35,0.216 3.222,0.104 l 0.878,-5.941 c 1.882,-0.468 5.133,-1.803 6.668,-2.895 l 4.776,3.451 c 1.17,-0.995 1.181,-1.145 2.105,-2.374 l -3.539,-5.031 c 0.888,-1.534 2.037,-4.535 2.349,-6.346 L 45.46,23.42 c 0.049,-0.578 0.051,-2.189 -0.093,-3.175 L 39.463,19.226 C 39.022,17.599 37.51,14.666 36.594,13.301 L 40.346,8.5773 C 39.32,7.3226 38.939,7.1504 37.65,6.1664 L 32.707,9.7056 C 31.335,8.894 28.599,7.6569 26.995,7.3044 L 26.122,1.6501 c -0.8,-0.0941 -3.107,-0.0523 -3.564,0 z" />
    </g>
    <rect
       style="font-variation-settings:'wght' 600;fill:#244982;fill-opacity:0.247059;stroke:#244982;stroke-width:0.704032;stroke-dasharray:2.11207, 2.11207;stroke-dashoffset:0;stroke-opacity:0.247059"
       id="rect376-2-4-7-6-74-8"
       width="63.124912"
       height="14.389751"
       x="118.90163"
       y="206.02899" />
    <text
       xml:space="preserve"
       style="font-style:normal;font-variant:normal;font-weight:normal;font-stretch:normal;font-size:3.80916px;font-family:Urbanist;-inkscape-font-specification:'Urbanist, @wght=600';font-variant-ligatures:normal;font-variant-caps:normal;font-variant-numeric:normal;font-variant-east-asian:normal;font-variation-settings:'wght' 600;fill:#000000;fill-opacity:1;stroke:none;stroke-width:0;stroke-dasharray:none;stroke-opacity:0.247059"
       x="119.11952"
       y="222.80945"
       id="text2084-90-5-5-51-2-8"
       transform="scale(1.0597953,0.94357845)"><tspan
         sodipodi:role="line"
         style="font-style:normal;font-variant:normal;font-weight:normal;font-stretch:normal;font-size:3.80916px;font-family:Urbanist;-inkscape-font-specification:'Urbanist, @wght=806';font-variant-ligatures:normal;font-variant-caps:normal;font-variant-numeric:normal;font-variant-east-asian:normal;font-variation-settings:'wght' 806;fill:#000000;fill-opacity:1;stroke:none;stroke-width:0;stroke-dasharray:none"
         x="119.11952"
         y="222.80945"
         id="tspan8597-28-6-3">Instance config</tspan></text>
    <text
       xml:space="preserve"
       style="font-style:normal;font-variant:normal;font-weight:normal;font-stretch:normal;font-size:3.40683px;font-family:Urbanist;-inkscape-font-specification:'Urbanist, @wght=600';font-variant-ligatures:normal;font-variant-caps:normal;font-variant-numeric:normal;font-variant-east-asian:normal;font-variation-settings:'wght' 600;fill:#000000;fill-opacity:1;stroke:none;stroke-width:0;stroke-dasharray:none;stroke-opacity:0.247059"
       x="113.92972"
       y="230.56541"
       id="text2084-90-5-5-5-4-1-7"
       transform="scale(1.0597953,0.94357845)"><tspan
         sodipodi:role="line"
         style="fill:#000000;fill-opacity:1;stroke:none;stroke-width:0;stroke-dasharray:none"
         x="113.92972"
         y="230.56541"
         id="tspan8637-35-65-8">cfg_publish_number_of_pings: true</tspan></text>
    <text
       xml:space="preserve"
       style="font-style:normal;font-variant:normal;font-weight:normal;font-stretch:normal;font-size:4.21428px;font-family:Urbanist;-inkscape-font-specification:'Urbanist, @wght=600';font-variant-ligatures:normal;font-variant-caps:normal;font-variant-numeric:normal;font-variant-east-asian:normal;font-variation-settings:'wght' 600;fill:#000000;fill-opacity:1;stroke:none;stroke-width:0;stroke-dasharray:none;stroke-opacity:0.247059"
       x="111.95498"
       y="216.9456"
       id="text2084-90-5-5-5-4-8-8-3"
       transform="scale(1.0597953,0.94357845)"><tspan
         sodipodi:role="line"
         style="fill:#000000;fill-opacity:1;stroke:none;stroke-width:0;stroke-dasharray:none"
         x="111.95498"
         y="216.9456"
         id="tspan8637-35-6-2-3">instance_id_ping_client</tspan></text>
    <g
       id="layer1-2-2-6-4"
       inkscape:label="Layer 1"
       transform="matrix(0.10515791,0,0,0.09362633,119.75972,207.01404)">
      <ellipse
         id="path3254-0-7-6"
         style="color:#000000;opacity:0.40909;fill:url(#radialGradient3262-5-1-8)"
         transform="translate(-0.88388,2.4749)"
         cx="25.455845"
         cy="39.161163"
         rx="19.622213"
         ry="6.1871843" />
      <path
         id="path3243-4-9-8"
         style="color:#000000;fill:url(#linearGradient40789);stroke:#808080"
         d="M 23.25,0.46875 C 22.785,0.5006 22.332,0.57268 21.875,0.625 H 21.844 L 20.75,6.5938 C 18.967,6.9997 17.29,7.6887 15.781,8.625 L 10.875,5.0938 C 9.5487,6.1234 8.3418,7.3243 7.2812,8.625 l 3.4068,4.969 c -1.0347,1.58 -1.8125,3.385 -2.2505,5.281 -10e-5,0.009 -10e-5,0.03 0,0.031 L 2.5,19.844 c -0.1086,0.886 -0.1562,1.803 -0.1562,2.718 0,0.75 0.0206,1.489 0.0937,2.219 l 5.9375,1.063 c 0.4223,2.062 1.2245,3.987 2.344,5.687 l -3.5315,4.844 c 1.0113,1.256 2.1789,2.399 3.4375,3.406 l 5,-3.437 c 1.747,1.114 3.698,1.896 5.813,2.281 l 0.937,5.906 c 0.666,0.061 1.349,0.063 2.031,0.063 0.963,0 1.882,-0.037 2.813,-0.156 l 1.125,-6.032 c 2.007,-0.499 3.893,-1.366 5.531,-2.531 l 4.813,3.5 c 1.248,-1.062 2.389,-2.282 3.374,-3.594 l -3.5,-5.062 c 0.948,-1.637 1.605,-3.443 1.938,-5.375 l 5.906,-0.938 c 0.052,-0.616 0.063,-1.214 0.063,-1.844 0,-1.094 -0.127,-2.167 -0.281,-3.218 l -6,-1.094 C 39.717,16.514 38.946,14.894 37.969,13.438 L 41.5,8.5938 C 40.405,7.2551 39.157,6.0186 37.781,4.9688 l -5.093,3.5 C 31.224,7.6029 29.648,6.9386 27.938,6.5625 L 27,0.625 C 26.147,0.52462 25.286,0.46875 24.406,0.46875 c -0.238,0 -0.482,-0.00748 -0.718,0 -0.116,0.00365 -0.229,-0.00669 -0.344,0 -0.031,0.00181 -0.063,-0.00212 -0.094,0 z m 0.812,15.187 c 0.115,-0.006 0.229,0 0.344,0 3.699,0 6.719,3.02 6.719,6.719 0,3.699 -3.02,6.687 -6.719,6.687 -3.699,0.001 -6.687,-2.988 -6.687,-6.687 0,-3.584 2.804,-6.539 6.343,-6.719 z" />
      <circle
         id="path3283-7-4-6"
         style="color:#000000;opacity:0.64773;fill:none;stroke:#ffffff;stroke-width:1.6488"
         transform="matrix(0.60652,0,0,0.60652,10.15,7.9368)"
         cx="23.511301"
         cy="23.781593"
         r="12.727922" />
      <path
         id="path3285-6-9-6"
         sodipodi:nodetypes="ccccccccccccccccccccccccccccccccc"
         style="color:#000000;opacity:0.34659;fill:none;stroke:#ffffff"
         d="m 22.558,1.6501 -0.878,5.779 c -1.671,0.3806 -4.745,1.5444 -6.159,2.422 L 10.849,6.3639 C 9.6054,7.3291 9.5201,7.3945 8.5261,8.6137 l 3.3779,5.0103 c -0.969,1.481 -2.1337,4.121 -2.5518,6.008 0,0 -5.9194,0.998 -5.9194,0.998 -0.1017,0.831 -0.0528,2.609 0.0157,3.294 l 5.6542,1.018 c 0.3958,1.933 1.8773,5.044 2.9263,6.637 l -3.5757,4.724 c 0.9479,1.177 1.1377,1.285 2.3177,2.229 l 4.781,-3.502 c 1.638,1.044 4.889,2.315 6.871,2.676 l 0.784,5.707 c 0.625,0.056 2.35,0.216 3.222,0.104 l 0.878,-5.941 c 1.882,-0.468 5.133,-1.803 6.668,-2.895 l 4.776,3.451 c 1.17,-0.995 1.181,-1.145 2.105,-2.374 l -3.539,-5.031 c 0.888,-1.534 2.037,-4.535 2.349,-6.346 L 45.46,23.42 c 0.049,-0.578 0.051,-2.189 -0.093,-3.175 L 39.463,19.226 C 39.022,17.599 37.51,14.666 36.594,13.301 L 40.346,8.5773 C 39.32,7.3226 38.939,7.1504 37.65,6.1664 L 32.707,9.7056 C 31.335,8.894 28.599,7.6569 26.995,7.3044 L 26.122,1.6501 c -0.8,-0.0941 -3.107,-0.0523 -3.564,0 z" />
    </g>
    <rect
       style="font-variation-settings:'wght' 600;fill:#00ce7c;fill-opacity:1;stroke-width:0.0650959"
       id="rect3441-5-3-0-6-2-6"
       width="50.648838"
       height="50.831722"
       x="47.633141"
       y="53.24033"
       inkscape:export-filename="everest-modules-and-instances.png"
       inkscape:export-xdpi="96"
       inkscape:export-ydpi="96" />
    <text
       xml:space="preserve"
       style="font-style:normal;font-variant:normal;font-weight:normal;font-stretch:normal;font-size:2.73847px;font-family:Urbanist;-inkscape-font-specification:'Urbanist, @wght=600';font-variant-ligatures:normal;font-variant-caps:normal;font-variant-numeric:normal;font-variant-east-asian:normal;font-variation-settings:'wght' 600;fill:#000000;fill-opacity:1;stroke:none;stroke-width:0;stroke-dasharray:none;stroke-opacity:0.247059"
       x="59.046047"
       y="91.382179"
       id="text2084-90-5-5-5-4-8-99-0-0-0-9"
       transform="scale(1.0597953,0.94357845)"><tspan
         sodipodi:role="line"
         style="fill:#000000;fill-opacity:1;stroke:none;stroke-width:0;stroke-dasharray:none"
         x="59.046047"
         y="91.382179"
         id="tspan8637-35-6-5-1-9-9-1">if_impl_id_ping</tspan></text>
    <text
       xml:space="preserve"
       style="font-style:normal;font-variant:normal;font-weight:normal;font-stretch:normal;font-size:4.19848px;font-family:Urbanist;-inkscape-font-specification:'Urbanist, @wght=600';font-variant-ligatures:normal;font-variant-caps:normal;font-variant-numeric:normal;font-variant-east-asian:normal;font-variation-settings:'wght' 600;fill:#000000;fill-opacity:1;stroke:none;stroke-width:0;stroke-dasharray:none;stroke-opacity:0.247059"
       x="60.906094"
       y="86.98069"
       id="text2084-90-5-5-5-4-8-99-9-1-2"
       transform="scale(1.0597953,0.94357845)"><tspan
         sodipodi:role="line"
         style="fill:#000000;fill-opacity:1;stroke:none;stroke-width:0;stroke-dasharray:none"
         x="60.906094"
         y="86.98069"
         id="tspan8637-35-6-5-9-6-3">Provides</tspan></text>
    <text
       xml:space="preserve"
       style="font-style:normal;font-variant:normal;font-weight:normal;font-stretch:normal;font-size:4.19848px;font-family:Urbanist;-inkscape-font-specification:'Urbanist, @wght=600';font-variant-ligatures:normal;font-variant-caps:normal;font-variant-numeric:normal;font-variant-east-asian:normal;font-variation-settings:'wght' 600;fill:#000000;fill-opacity:1;stroke:none;stroke-width:0;stroke-dasharray:none;stroke-opacity:0.247059"
       x="50.982937"
       y="55.248829"
       id="text2084-90-5-5-5-4-8-99-9-6-5-9-4-5"
       transform="scale(1.0597953,0.94357845)"><tspan
         sodipodi:role="line"
         style="fill:#000000;fill-opacity:1;stroke:none;stroke-width:0;stroke-dasharray:none"
         x="50.982937"
         y="55.248829"
         id="tspan2816-4-9-4-2">PingServerModule</tspan></text>
    <text
       xml:space="preserve"
       style="font-style:normal;font-variant:normal;font-weight:normal;font-stretch:normal;font-size:4.19848px;font-family:Urbanist;-inkscape-font-specification:'Urbanist, @wght=600';font-variant-ligatures:normal;font-variant-caps:normal;font-variant-numeric:normal;font-variant-east-asian:normal;font-variation-settings:'wght' 600;fill:#000000;fill-opacity:1;stroke:none;stroke-width:0;stroke-dasharray:none;stroke-opacity:0.247059"
       x="36.701748"
       y="45.167858"
       id="text2084-90-5-5-5-4-8-99-9-6-5-9-4-5-4"
       transform="scale(1.0597953,0.94357845)"><tspan
         sodipodi:role="line"
         style="fill:#000000;fill-opacity:1;stroke:none;stroke-width:0;stroke-dasharray:none"
         x="36.701748"
         y="45.167858"
         id="tspan2816-4-9-4-2-7">Definition of modules and interfaces</tspan></text>
    <text
       xml:space="preserve"
       style="font-style:normal;font-variant:normal;font-weight:normal;font-stretch:normal;font-size:4.19848px;font-family:Urbanist;-inkscape-font-specification:'Urbanist, @wght=600';font-variant-ligatures:normal;font-variant-caps:normal;font-variant-numeric:normal;font-variant-east-asian:normal;font-variation-settings:'wght' 600;fill:#000000;fill-opacity:1;stroke:none;stroke-width:0;stroke-dasharray:none;stroke-opacity:0.247059"
       x="35.442226"
       y="205.6138"
       id="text2084-90-5-5-5-4-8-99-9-6-5-9-4-5-4-8"
       transform="scale(1.0597953,0.94357845)"><tspan
         sodipodi:role="line"
         style="fill:#000000;fill-opacity:1;stroke:none;stroke-width:0;stroke-dasharray:none"
         x="35.442226"
         y="205.6138"
         id="tspan2816-4-9-4-2-7-3">Run configuration</tspan></text>
    <g
       id="g2919-6-2-5"
       transform="matrix(0.02397728,0,0,0.02397728,66.861145,86.896942)">
      <g
         id="g2865-8-8-2">
        <path
           d="M 327.081,0 H 90.234 C 74.331,0 61.381,12.959 61.381,28.859 v 412.863 c 0,15.924 12.95,28.863 28.853,28.863 H 380.35 c 15.917,0 28.855,-12.939 28.855,-28.863 V 89.234 Z m 6.81,43.184 35.996,39.121 h -35.996 z m 51.081,398.539 c 0,2.542 -2.081,4.629 -4.635,4.629 H 90.234 c -2.55,0 -4.619,-2.087 -4.619,-4.629 V 28.859 c 0,-2.548 2.069,-4.613 4.619,-4.613 h 219.411 v 70.181 c 0,6.682 5.443,12.099 12.129,12.099 h 63.198 z M 128.364,128.89 H 334.15 c 5.013,0 9.079,4.066 9.079,9.079 0,5.013 -4.066,9.079 -9.079,9.079 H 128.364 c -5.012,0 -9.079,-4.066 -9.079,-9.079 0,-5.012 4.067,-9.079 9.079,-9.079 z m 214.865,70.09 c 0,5.012 -4.066,9.079 -9.079,9.079 H 128.364 c -5.012,0 -9.079,-4.066 -9.079,-9.079 0,-5.013 4.067,-9.079 9.079,-9.079 H 334.15 c 5.013,0 9.079,4.067 9.079,9.079 z m 0,59.013 c 0,5.013 -4.066,9.079 -9.079,9.079 H 128.364 c -5.012,0 -9.079,-4.066 -9.079,-9.079 0,-5.013 4.067,-9.079 9.079,-9.079 H 334.15 c 5.013,0 9.079,4.066 9.079,9.079 z m 0,60.018 c 0,5.013 -4.066,9.079 -9.079,9.079 H 128.364 c -5.012,0 -9.079,-4.066 -9.079,-9.079 0,-5.013 4.067,-9.079 9.079,-9.079 H 334.15 c 5.013,0 9.079,4.066 9.079,9.079 z"
           id="path2863-8-5-6" />
      </g>
      <g
         id="g2867-4-0-1" />
      <g
         id="g2869-5-8-7" />
      <g
         id="g2871-7-0-5" />
      <g
         id="g2873-7-1-9" />
      <g
         id="g2875-3-9-8" />
      <g
         id="g2877-0-9-7" />
      <g
         id="g2879-2-0-3" />
      <g
         id="g2881-4-7-3" />
      <g
         id="g2883-4-9-3" />
      <g
         id="g2885-0-7-6" />
      <g
         id="g2887-6-4-7" />
      <g
         id="g2889-4-5-8" />
      <g
         id="g2891-1-4-1" />
      <g
         id="g2893-7-9-9" />
      <g
         id="g2895-6-3-6" />
    </g>
    <path
       style="font-variation-settings:'wght' 806;fill:none;stroke:#000000;stroke-width:0.622374;stroke-dasharray:2.48949, 0.622374;stroke-dashoffset:0;stroke-opacity:1"
       d="M 77.040445,92.317962 H 116.03804"
       id="path3325-2-9-9" />
    <rect
       style="font-variation-settings:'wght' 600;fill:#244982;fill-opacity:0.247059;stroke:#244982;stroke-width:0.592769;stroke-dasharray:1.7783, 1.7783;stroke-dashoffset:0;stroke-opacity:0.247059"
       id="rect376-2-4-7-8"
       width="43.463516"
       height="14.815652"
       x="51.03463"
       y="57.009624" />
    <text
       xml:space="preserve"
       style="font-style:normal;font-variant:normal;font-weight:normal;font-stretch:normal;font-size:2.58782px;font-family:Urbanist;-inkscape-font-specification:'Urbanist, @wght=600';font-variant-ligatures:normal;font-variant-caps:normal;font-variant-numeric:normal;font-variant-east-asian:normal;font-variation-settings:'wght' 600;fill:#000000;fill-opacity:1;stroke:none;stroke-width:0;stroke-dasharray:none;stroke-opacity:0.247059"
       x="57.692955"
       y="60.490841"
       id="text2084-90-5-5-4"><tspan
         sodipodi:role="line"
         id="tspan2082-5-3-5-7"
         style="font-style:normal;font-variant:normal;font-weight:normal;font-stretch:normal;font-size:2.58782px;font-family:Urbanist;-inkscape-font-specification:'Urbanist, @wght=806';font-variant-ligatures:normal;font-variant-caps:normal;font-variant-numeric:normal;font-variant-east-asian:normal;font-variation-settings:'wght' 806;fill:#000000;fill-opacity:1;stroke:none;stroke-width:0;stroke-dasharray:none"
         x="57.692955"
         y="60.490841">Config definition</tspan><tspan
         sodipodi:role="line"
         style="font-style:normal;font-variant:normal;font-weight:normal;font-stretch:normal;font-size:2.58782px;font-family:Urbanist;-inkscape-font-specification:'Urbanist, @wght=806';font-variant-ligatures:normal;font-variant-caps:normal;font-variant-numeric:normal;font-variant-east-asian:normal;font-variation-settings:'wght' 806;fill:#000000;fill-opacity:1;stroke:none;stroke-width:0;stroke-dasharray:none"
         x="57.692955"
         y="63.725616"
         id="tspan8597-8">via Manifest</tspan></text>
    <text
       xml:space="preserve"
       style="font-style:normal;font-variant:normal;font-weight:normal;font-stretch:normal;font-size:2.58782px;font-family:Urbanist;-inkscape-font-specification:'Urbanist, @wght=600';font-variant-ligatures:normal;font-variant-caps:normal;font-variant-numeric:normal;font-variant-east-asian:normal;font-variation-settings:'wght' 600;fill:#000000;fill-opacity:1;stroke:none;stroke-width:0;stroke-dasharray:none;stroke-opacity:0.247059"
       x="52.731651"
       y="69.175743"
       id="text2084-90-5-5-5-47"><tspan
         sodipodi:role="line"
         style="fill:#000000;fill-opacity:1;stroke:none;stroke-width:0;stroke-dasharray:none"
         x="52.731651"
         y="69.175743"
         id="tspan8637-5">cfg_publish_number_of_pings</tspan></text>
    <g
       id="layer1-2-5"
       inkscape:label="Layer 1"
       transform="matrix(0.09376621,0,0,0.09376621,51.836745,58.033062)">
      <ellipse
         id="path3254-6"
         style="color:#000000;opacity:0.40909;fill:url(#radialGradient3262-7)"
         transform="translate(-0.88388,2.4749)"
         cx="25.455845"
         cy="39.161163"
         rx="19.622213"
         ry="6.1871843" />
      <path
         id="path3243-42"
         style="color:#000000;fill:url(#linearGradient5487);stroke:#808080"
         d="M 23.25,0.46875 C 22.785,0.5006 22.332,0.57268 21.875,0.625 H 21.844 L 20.75,6.5938 C 18.967,6.9997 17.29,7.6887 15.781,8.625 L 10.875,5.0938 C 9.5487,6.1234 8.3418,7.3243 7.2812,8.625 l 3.4068,4.969 c -1.0347,1.58 -1.8125,3.385 -2.2505,5.281 -10e-5,0.009 -10e-5,0.03 0,0.031 L 2.5,19.844 c -0.1086,0.886 -0.1562,1.803 -0.1562,2.718 0,0.75 0.0206,1.489 0.0937,2.219 l 5.9375,1.063 c 0.4223,2.062 1.2245,3.987 2.344,5.687 l -3.5315,4.844 c 1.0113,1.256 2.1789,2.399 3.4375,3.406 l 5,-3.437 c 1.747,1.114 3.698,1.896 5.813,2.281 l 0.937,5.906 c 0.666,0.061 1.349,0.063 2.031,0.063 0.963,0 1.882,-0.037 2.813,-0.156 l 1.125,-6.032 c 2.007,-0.499 3.893,-1.366 5.531,-2.531 l 4.813,3.5 c 1.248,-1.062 2.389,-2.282 3.374,-3.594 l -3.5,-5.062 c 0.948,-1.637 1.605,-3.443 1.938,-5.375 l 5.906,-0.938 c 0.052,-0.616 0.063,-1.214 0.063,-1.844 0,-1.094 -0.127,-2.167 -0.281,-3.218 l -6,-1.094 C 39.717,16.514 38.946,14.894 37.969,13.438 L 41.5,8.5938 C 40.405,7.2551 39.157,6.0186 37.781,4.9688 l -5.093,3.5 C 31.224,7.6029 29.648,6.9386 27.938,6.5625 L 27,0.625 C 26.147,0.52462 25.286,0.46875 24.406,0.46875 c -0.238,0 -0.482,-0.00748 -0.718,0 -0.116,0.00365 -0.229,-0.00669 -0.344,0 -0.031,0.00181 -0.063,-0.00212 -0.094,0 z m 0.812,15.187 c 0.115,-0.006 0.229,0 0.344,0 3.699,0 6.719,3.02 6.719,6.719 0,3.699 -3.02,6.687 -6.719,6.687 -3.699,0.001 -6.687,-2.988 -6.687,-6.687 0,-3.584 2.804,-6.539 6.343,-6.719 z" />
      <circle
         id="path3283-3"
         style="color:#000000;opacity:0.64773;fill:none;stroke:#ffffff;stroke-width:1.6488"
         transform="matrix(0.60652,0,0,0.60652,10.15,7.9368)"
         cx="23.511301"
         cy="23.781593"
         r="12.727922" />
      <path
         id="path3285-4"
         sodipodi:nodetypes="ccccccccccccccccccccccccccccccccc"
         style="color:#000000;opacity:0.34659;fill:none;stroke:#ffffff"
         d="m 22.558,1.6501 -0.878,5.779 c -1.671,0.3806 -4.745,1.5444 -6.159,2.422 L 10.849,6.3639 C 9.6054,7.3291 9.5201,7.3945 8.5261,8.6137 l 3.3779,5.0103 c -0.969,1.481 -2.1337,4.121 -2.5518,6.008 0,0 -5.9194,0.998 -5.9194,0.998 -0.1017,0.831 -0.0528,2.609 0.0157,3.294 l 5.6542,1.018 c 0.3958,1.933 1.8773,5.044 2.9263,6.637 l -3.5757,4.724 c 0.9479,1.177 1.1377,1.285 2.3177,2.229 l 4.781,-3.502 c 1.638,1.044 4.889,2.315 6.871,2.676 l 0.784,5.707 c 0.625,0.056 2.35,0.216 3.222,0.104 l 0.878,-5.941 c 1.882,-0.468 5.133,-1.803 6.668,-2.895 l 4.776,3.451 c 1.17,-0.995 1.181,-1.145 2.105,-2.374 l -3.539,-5.031 c 0.888,-1.534 2.037,-4.535 2.349,-6.346 L 45.46,23.42 c 0.049,-0.578 0.051,-2.189 -0.093,-3.175 L 39.463,19.226 C 39.022,17.599 37.51,14.666 36.594,13.301 L 40.346,8.5773 C 39.32,7.3226 38.939,7.1504 37.65,6.1664 L 32.707,9.7056 C 31.335,8.894 28.599,7.6569 26.995,7.3044 L 26.122,1.6501 c -0.8,-0.0941 -3.107,-0.0523 -3.564,0 z" />
    </g>
    <rect
       style="font-variation-settings:'wght' 600;fill:#00ce7c;fill-opacity:1;stroke-width:0.0650959"
       id="rect3441-5-3-0-6-2-6-9"
       width="50.648838"
       height="50.831722"
       x="47.599693"
       y="125.53806"
       inkscape:export-filename="everest-modules-and-instances.png"
       inkscape:export-xdpi="96"
       inkscape:export-ydpi="96" />
    <text
       xml:space="preserve"
       style="font-style:normal;font-variant:normal;font-weight:normal;font-stretch:normal;font-size:2.91301px;font-family:Urbanist;-inkscape-font-specification:'Urbanist, @wght=600';font-variant-ligatures:normal;font-variant-caps:normal;font-variant-numeric:normal;font-variant-east-asian:normal;font-variation-settings:'wght' 600;fill:#000000;fill-opacity:1;stroke:none;stroke-width:0;stroke-dasharray:none;stroke-opacity:0.247059"
       x="64.555626"
       y="168.03851"
       id="text2084-90-5-5-5-4-8-99-0-0-0-9-9"
       transform="scale(1.0597953,0.94357845)"><tspan
         sodipodi:role="line"
         style="fill:#000000;fill-opacity:1;stroke:none;stroke-width:0;stroke-dasharray:none"
         x="64.555626"
         y="168.03851"
         id="tspan8637-35-6-5-1-9-9-1-5">empty</tspan></text>
    <text
       xml:space="preserve"
       style="font-style:normal;font-variant:normal;font-weight:normal;font-stretch:normal;font-size:4.19848px;font-family:Urbanist;-inkscape-font-specification:'Urbanist, @wght=600';font-variant-ligatures:normal;font-variant-caps:normal;font-variant-numeric:normal;font-variant-east-asian:normal;font-variation-settings:'wght' 600;fill:#000000;fill-opacity:1;stroke:none;stroke-width:0;stroke-dasharray:none;stroke-opacity:0.247059"
       x="60.874538"
       y="163.6015"
       id="text2084-90-5-5-5-4-8-99-9-1-2-7"
       transform="scale(1.0597953,0.94357845)"><tspan
         sodipodi:role="line"
         style="fill:#000000;fill-opacity:1;stroke:none;stroke-width:0;stroke-dasharray:none"
         x="60.874538"
         y="163.6015"
         id="tspan8637-35-6-5-9-6-3-7">Provides</tspan></text>
    <text
       xml:space="preserve"
       style="font-style:normal;font-variant:normal;font-weight:normal;font-stretch:normal;font-size:4.19848px;font-family:Urbanist;-inkscape-font-specification:'Urbanist, @wght=600';font-variant-ligatures:normal;font-variant-caps:normal;font-variant-numeric:normal;font-variant-east-asian:normal;font-variation-settings:'wght' 600;fill:#000000;fill-opacity:1;stroke:none;stroke-width:0;stroke-dasharray:none;stroke-opacity:0.247059"
       x="51.821011"
       y="190.86057"
       id="text2084-90-5-5-5-4-8-99-9-6-5-9-4-5-9"
       transform="scale(1.0597953,0.94357845)"><tspan
         sodipodi:role="line"
         style="fill:#000000;fill-opacity:1;stroke:none;stroke-width:0;stroke-dasharray:none"
         x="51.821011"
         y="190.86057"
         id="tspan2816-4-9-4-2-6">PingClientModule</tspan></text>
    <g
       id="g2919-6-2-5-7"
       transform="matrix(0.02397728,0,0,0.02397728,66.827645,159.19468)"
       style="fill:#999999">
      <g
         id="g2865-8-8-2-0"
         style="fill:#999999">
        <path
           d="M 327.081,0 H 90.234 C 74.331,0 61.381,12.959 61.381,28.859 v 412.863 c 0,15.924 12.95,28.863 28.853,28.863 H 380.35 c 15.917,0 28.855,-12.939 28.855,-28.863 V 89.234 Z m 6.81,43.184 35.996,39.121 h -35.996 z m 51.081,398.539 c 0,2.542 -2.081,4.629 -4.635,4.629 H 90.234 c -2.55,0 -4.619,-2.087 -4.619,-4.629 V 28.859 c 0,-2.548 2.069,-4.613 4.619,-4.613 h 219.411 v 70.181 c 0,6.682 5.443,12.099 12.129,12.099 h 63.198 z M 128.364,128.89 H 334.15 c 5.013,0 9.079,4.066 9.079,9.079 0,5.013 -4.066,9.079 -9.079,9.079 H 128.364 c -5.012,0 -9.079,-4.066 -9.079,-9.079 0,-5.012 4.067,-9.079 9.079,-9.079 z m 214.865,70.09 c 0,5.012 -4.066,9.079 -9.079,9.079 H 128.364 c -5.012,0 -9.079,-4.066 -9.079,-9.079 0,-5.013 4.067,-9.079 9.079,-9.079 H 334.15 c 5.013,0 9.079,4.067 9.079,9.079 z m 0,59.013 c 0,5.013 -4.066,9.079 -9.079,9.079 H 128.364 c -5.012,0 -9.079,-4.066 -9.079,-9.079 0,-5.013 4.067,-9.079 9.079,-9.079 H 334.15 c 5.013,0 9.079,4.066 9.079,9.079 z m 0,60.018 c 0,5.013 -4.066,9.079 -9.079,9.079 H 128.364 c -5.012,0 -9.079,-4.066 -9.079,-9.079 0,-5.013 4.067,-9.079 9.079,-9.079 H 334.15 c 5.013,0 9.079,4.066 9.079,9.079 z"
           id="path2863-8-5-6-9"
           style="fill:#999999" />
      </g>
      <g
         id="g2867-4-0-1-6"
         style="fill:#999999" />
      <g
         id="g2869-5-8-7-5"
         style="fill:#999999" />
      <g
         id="g2871-7-0-5-0"
         style="fill:#999999" />
      <g
         id="g2873-7-1-9-1"
         style="fill:#999999" />
      <g
         id="g2875-3-9-8-1"
         style="fill:#999999" />
      <g
         id="g2877-0-9-7-0"
         style="fill:#999999" />
      <g
         id="g2879-2-0-3-5"
         style="fill:#999999" />
      <g
         id="g2881-4-7-3-3"
         style="fill:#999999" />
      <g
         id="g2883-4-9-3-3"
         style="fill:#999999" />
      <g
         id="g2885-0-7-6-6"
         style="fill:#999999" />
      <g
         id="g2887-6-4-7-0"
         style="fill:#999999" />
      <g
         id="g2889-4-5-8-7"
         style="fill:#999999" />
      <g
         id="g2891-1-4-1-1"
         style="fill:#999999" />
      <g
         id="g2893-7-9-9-9"
         style="fill:#999999" />
      <g
         id="g2895-6-3-6-8"
         style="fill:#999999" />
    </g>
    <path
       style="font-variation-settings:'wght' 806;fill:none;stroke:#cd7e00;stroke-width:0.568545;stroke-dasharray:none;stroke-dashoffset:0;stroke-opacity:1;marker-start:url(#Arrow1-0)"
       d="M 73.238745,129.90455 V 99.976242"
       id="path3325-2-4-6" />
    <text
       xml:space="preserve"
       style="font-style:normal;font-variant:normal;font-weight:normal;font-stretch:normal;font-size:2.73847px;font-family:Urbanist;-inkscape-font-specification:'Urbanist, @wght=600';font-variant-ligatures:normal;font-variant-caps:normal;font-variant-numeric:normal;font-variant-east-asian:normal;font-variation-settings:'wght' 600;fill:#000000;fill-opacity:1;stroke:none;stroke-width:0;stroke-dasharray:none;stroke-opacity:0.247059"
       x="59.014431"
       y="147.92004"
       id="text2084-90-5-5-5-4-8-99-0-0-0-9-5"
       transform="scale(1.0597953,0.94357845)"><tspan
         sodipodi:role="line"
         style="fill:#000000;fill-opacity:1;stroke:none;stroke-width:0;stroke-dasharray:none"
         x="59.014431"
         y="147.92004"
         id="tspan8637-35-6-5-1-9-9-1-0">if_impl_id_ping</tspan></text>
    <rect
       style="font-variation-settings:'wght' 600;fill:#baf419;fill-opacity:1;stroke-width:0.0473849"
       id="rect3441-5-3-0-2-0-0-4-3-1"
       width="56.854691"
       height="23.994284"
       x="116.61275"
       y="82.19706" />
    <text
       xml:space="preserve"
       style="font-style:normal;font-variant:normal;font-weight:normal;font-stretch:normal;font-size:4.19848px;font-family:Urbanist;-inkscape-font-specification:'Urbanist, @wght=600';font-variant-ligatures:normal;font-variant-caps:normal;font-variant-numeric:normal;font-variant-east-asian:normal;font-variation-settings:'wght' 600;fill:#000000;fill-opacity:1;stroke:none;stroke-width:0;stroke-dasharray:none;stroke-opacity:0.247059"
       x="111.29202"
       y="92.663673"
       id="text2084-90-5-5-5-4-8-99-9-6-5-1-3"
       transform="scale(1.0597953,0.94357845)"><tspan
         sodipodi:role="line"
         style="fill:#000000;fill-opacity:1;stroke:none;stroke-width:0;stroke-dasharray:none"
         x="111.29202"
         y="92.663673"
         id="tspan2816-4-2-3">Interface interface_ping</tspan></text>
    <text
       xml:space="preserve"
       style="font-style:normal;font-variant:normal;font-weight:normal;font-stretch:normal;font-size:4.19848px;font-family:Urbanist;-inkscape-font-specification:'Urbanist, @wght=600';font-variant-ligatures:normal;font-variant-caps:normal;font-variant-numeric:normal;font-variant-east-asian:normal;font-variation-settings:'wght' 600;fill:#000000;fill-opacity:1;stroke:none;stroke-width:0;stroke-dasharray:none;stroke-opacity:0.247059"
       x="111.10744"
       y="101.5519"
       id="text2084-90-5-5-5-4-8-99-9-6-5-1-3-1"
       transform="scale(1.0597953,0.94357845)"><tspan
         sodipodi:role="line"
         style="fill:#000000;fill-opacity:1;stroke:none;stroke-width:0;stroke-dasharray:none"
         x="111.10744"
         y="101.5519"
         id="tspan2816-4-2-3-3">CMD command_ping</tspan></text>
    <text
       xml:space="preserve"
       style="font-style:normal;font-variant:normal;font-weight:normal;font-stretch:normal;font-size:4.19848px;font-family:Urbanist;-inkscape-font-specification:'Urbanist, @wght=600';font-variant-ligatures:normal;font-variant-caps:normal;font-variant-numeric:normal;font-variant-east-asian:normal;font-variation-settings:'wght' 600;fill:#000000;fill-opacity:1;stroke:none;stroke-width:0;stroke-dasharray:none;stroke-opacity:0.247059"
       x="111.16286"
       y="108.17265"
       id="text2084-90-5-5-5-4-8-99-9-6-5-1-3-1-4"
       transform="scale(1.0597953,0.94357845)"><tspan
         sodipodi:role="line"
         style="fill:#000000;fill-opacity:1;stroke:none;stroke-width:0;stroke-dasharray:none"
         x="111.16286"
         y="108.17265"
         id="tspan2816-4-2-3-3-6">VAR var_nping</tspan></text>
    <text
       xml:space="preserve"
       style="font-style:normal;font-variant:normal;font-weight:normal;font-stretch:normal;font-size:4.19848px;font-family:Urbanist;-inkscape-font-specification:'Urbanist, @wght=600';font-variant-ligatures:normal;font-variant-caps:normal;font-variant-numeric:normal;font-variant-east-asian:normal;font-variation-settings:'wght' 600;fill:#000000;fill-opacity:1;stroke:none;stroke-width:0;stroke-dasharray:none;stroke-opacity:0.247059"
       x="60.799526"
       y="144.06145"
       id="text2084-90-5-5-5-4-8-99-9-9-1"
       transform="scale(1.0597953,0.94357845)"><tspan
         sodipodi:role="line"
         style="fill:#000000;fill-opacity:1;stroke:none;stroke-width:0;stroke-dasharray:none"
         x="60.799526"
         y="144.06145"
         id="tspan8637-35-6-5-9-7-2">Requires</tspan></text>
    <path
       style="font-variation-settings:'wght' 806;fill:none;stroke:#000000;stroke-width:0.402947;stroke-dasharray:0.402947, 1.61179;stroke-dashoffset:0;stroke-opacity:1"
       d="m 47.672845,145.76778 h 50.2867"
       id="path1848-3" />
    <path
       style="font-variation-settings:'wght' 806;fill:none;stroke:#000000;stroke-width:0.463069;stroke-dasharray:none;stroke-dashoffset:0;stroke-opacity:1"
       d="m 116.61284,89.223762 h 56.333"
       id="path2505" />
    <rect
       style="font-variation-settings:'wght' 806;fill:none;stroke:#000000;stroke-width:0.5;stroke-dasharray:0.5, 1;stroke-dashoffset:0"
       id="rect883"
       width="147.87077"
       height="139.37605"
       x="38.001427"
       y="44.460567" />
    <rect
       style="font-variation-settings:'wght' 806;fill:none;stroke:#000000;stroke-width:0.5;stroke-dasharray:0.5, 1;stroke-dashoffset:0"
       id="rect883-6"
       width="148.04611"
       height="58.694401"
       x="37.208214"
       y="196.05971" />
    <path
       style="font-variation-settings:'wght' 806;fill:none;stroke:#000000;stroke-width:0.5;stroke-dasharray:none;stroke-dashoffset:0;marker-end:url(#Arrow1)"
       d="m 39.183585,203.44514 h -8.49469 V 50.540484 h 21.70866"
       id="path36904" />
    <path
       style="font-variation-settings:'wght' 806;fill:none;stroke:#000000;stroke-width:0.499999;stroke-dasharray:none;stroke-dashoffset:0;marker-end:url(#Arrow1)"
       d="m 117.52363,203.44514 h -7.86548 V 178.90488 H 92.039525"
       id="path37099" />
    <path
       style="font-variation-settings:'wght' 806;fill:none;stroke:#cd7e00;stroke-width:0.7;stroke-dasharray:none;stroke-dashoffset:0;stroke-opacity:1;marker-end:url(#Arrow1)"
       d="m 150.24396,220.11992 v 18.87712 H 64.038455 V 219.8053"
       id="path46164" />
  </g>
</svg>
