<svg xmlns="http://www.w3.org/2000/svg" xmlns:xlink="http://www.w3.org/1999/xlink" xmlns:lucid="lucid" width="1200" height="2425"><g transform="translate(-100 205)" lucid:page-tab-id="0_0"><path d="M1040 80c0 22.1-17.9 40-40 40s-40-17.9-40-40 17.9-40 40-40 40 17.9 40 40z" stroke="#5e5e5e" stroke-width="3" fill="#b391b5"/><path d="M1240 220c0 22.1-17.9 40-40 40s-40-17.9-40-40 17.9-40 40-40 40 17.9 40 40z" stroke="#5e5e5e" stroke-width="3" fill="#a3d977"/><path d="M1154.44 157.53l13.84 2.9 8.14 2.1 5.4 1.6 3.8 1.32 1.5.6-.72 1.86-1.48-.57-3.72-1.3-5.3-1.6-8.08-2.04-13.73-2.9-15.7-2.4v-2.03zm-153.33-34.98l.06.2.06.23.07.2.07.24.1.23.1.23.14.25.16.25.17.27.2.28.22.3.26.3.3.35.36.36.4.38.5.42.58.46.7.5.83.56 1.02.62 1.27.7 1.6.8 2.08.9 2.73 1.1 3.72 1.28 5.3 1.6 8.08 2.05 13.74 2.9 15.63 2.57v2.02l-16-2.63-13.83-2.9-8.14-2.1-5.4-1.6-3.8-1.32-2.8-1.1-2.15-.97-1.7-.83-1.33-.74-1.1-.65-.9-.6-.77-.56-.64-.52-.56-.47-.48-.43-.4-.42-.37-.4-.32-.38-.28-.36-.24-.34-.2-.34-.2-.33-.17-.33-.16-.3-.13-.32-.1-.3-.1-.3-.08-.3-.07-.28-.05-.3 1.97-.36z" fill="#5e5e5e"/><path d="M999.98 121.5l1.02-.03.02 1.04-2 .05-.02-1.1zM1197.56 176.37l-13.8-5.86 6.08-7z" fill="#5e5e5e"/><path d="M1200 178.5l-17.9-7.6 7.9-9.08zm-14.6-8.37l9.72 4.12-5.43-9.04z" fill="#5e5e5e"/><use xlink:href="#a" transform="matrix(1,0,0,1,1061.5521412409407,139.51301216588934) translate(0 14.222222222222223)"/><use xlink:href="#b" transform="matrix(1,0,0,1,1061.5521412409407,139.51301216588934) translate(64.0493827160494 14.222222222222223)"/><path d="M1040 220c0 22.1-17.9 40-40 40s-40-17.9-40-40 17.9-40 40-40 40 17.9 40 40z" stroke="#5e5e5e" stroke-width="3" fill="#b391b5"/><path d="M1157.5 220H1060" stroke="#5e5e5e" stroke-width="2" fill="none"/><path d="M1158.5 219.98l.03 1.02h-1.06v-2h1.1z" fill="#5e5e5e"/><path d="M1044.74 220l14.26-4.64v9.28z" stroke="#5e5e5e" stroke-width="2" fill="#5e5e5e"/><path d="M1240 360c0 22.1-17.9 40-40 40s-40-17.9-40-40 17.9-40 40-40 40 17.9 40 40zM1240 480c0 22.1-17.9 40-40 40s-40-17.9-40-40 17.9-40 40-40 40 17.9 40 40z" stroke="#5e5e5e" stroke-width="3" fill="#a3d977"/><path d="M1154.44 297.53l13.84 2.9 8.14 2.1 5.4 1.6 3.8 1.32 1.5.6-.72 1.86-1.48-.57-3.72-1.3-5.3-1.6-8.08-2.04-13.73-2.9-15.7-2.4v-2.03zm-153.33-34.98l.06.2.06.23.07.2.07.24.1.23.1.23.14.25.16.25.17.27.2.28.22.3.26.3.3.35.36.36.4.38.5.42.58.46.7.5.83.56 1.02.62 1.27.7 1.6.8 2.08.9 2.73 1.1 3.72 1.28 5.3 1.6 8.08 2.05 13.74 2.9 15.63 2.57v2.02l-16-2.63-13.83-2.9-8.14-2.1-5.4-1.6-3.8-1.32-2.8-1.1-2.15-.97-1.7-.83-1.33-.74-1.1-.65-.9-.6-.77-.56-.64-.52-.56-.47-.48-.43-.4-.42-.37-.4-.32-.38-.28-.36-.24-.34-.2-.34-.2-.33-.17-.33-.16-.3-.13-.32-.1-.3-.1-.3-.08-.3-.07-.28-.05-.3 1.97-.36z" fill="#5e5e5e"/><path d="M999.98 261.5l1.02-.03.02 1.04-2 .05-.02-1.1zM1197.56 316.37l-13.8-5.86 6.08-7z" fill="#5e5e5e"/><path d="M1200 318.5l-17.9-7.6 7.9-9.08zm-14.6-8.37l9.72 4.12-5.43-9.04z" fill="#5e5e5e"/><use xlink:href="#a" transform="matrix(1,0,0,1,1061.5521412409407,279.51301216588934) translate(0 14.222222222222223)"/><use xlink:href="#c" transform="matrix(1,0,0,1,1061.5521412409407,279.51301216588934) translate(64.0493827160494 14.222222222222223)"/><path d="M1200 402.5V420" stroke="#5e5e5e" stroke-width="2" fill="none"/><path d="M1199.98 401.5l1.02-.03v1.06h-2v-1.1z" fill="#5e5e5e"/><path d="M1200 435.26l-4.64-14.26h9.28z" stroke="#5e5e5e" stroke-width="2" fill="#5e5e5e"/><path d="M1040 820c0 22.1-17.9 40-40 40s-40-17.9-40-40 17.9-40 40-40 40 17.9 40 40z" stroke="#5e5e5e" stroke-width="3" fill="#b391b5"/><path d="M1199.95 522.5l-.04.37-.05.45-.1.45-.1.45-.12.46-.15.45-.17.47-.2.47-.22.48-.25.5-.3.5-.33.52-.37.54-.43.57-.5.6-.55.62-.65.65-.74.7-.87.74-1.03.8-1.2.87-1.45.96-1.74 1.06-2.15 1.16-2.68 1.33-3.43 1.52-4.52 1.78-6.2 2.15-9.06 2.72-14.86 3.78-105.82 22.48-9.05 2.72-6.2 2.15-4.52 1.78-3.43 1.53-2.68 1.34-2.15 1.17-.95.6" stroke="#5e5e5e" stroke-width="2" fill="none"/><path d="M1199.98 521.5l1.02-.03-.02 1.08-2-.04.02-1.06z" fill="#5e5e5e"/><path d="M1001.95 595.92l4.9-14.18 7.4 5.6z" stroke="#5e5e5e" stroke-width="2" fill="#5e5e5e"/><path d="M1000 262.5V580" stroke="#5e5e5e" stroke-width="2" fill="none"/><path d="M999.98 261.5l1.02-.03v1.06h-2v-1.1z" fill="#5e5e5e"/><path d="M1000 595.26L995.36 581h9.28z" stroke="#5e5e5e" stroke-width="2" fill="#5e5e5e"/><path d="M840 960c0 22.1-17.9 40-40 40s-40-17.9-40-40 17.9-40 40-40 40 17.9 40 40z" stroke="#5e5e5e" stroke-width="3" fill="#99d5ca"/><path d="M876.82 894.75l-30.9 4.75-13.74 2.9-8.07 2.04-5.3 1.6-3.72 1.3-1.48.57-.73-1.85 1.5-.6 3.82-1.32 5.38-1.6 8.14-2.1 13.84-2.9 31.26-4.8zm124.08-32.07l-.05.3-.07.28-.1.3-.08.3-.1.3-.14.3-.15.3-.16.33-.2.32-.2.34-.24.35-.28.37-.3.38-.37.4-.4.42-.5.44-.54.48-.63.5-.76.56-.9.6-1.1.67-1.34.75-1.7.83-2.13.96-2.8 1.1-3.82 1.33-5.38 1.6-8.14 2.1-13.83 2.9-31.2 5.12v-2.04l30.83-5.06 13.74-2.9 8.07-2.04 5.3-1.6 3.72-1.3 2.73-1.07 2.07-.93 1.6-.8 1.3-.7 1-.6.85-.57.7-.5.57-.46.5-.42.4-.38.35-.36.3-.34.25-.3.23-.3.2-.3.16-.26.15-.25.12-.25.1-.23.1-.23.1-.23.06-.22.06-.22.05-.2.03-.25z" fill="#5e5e5e"/><path d="M999.98 861.5l1.02-.03-.02 1.08-2-.04.02-1.06zM816.25 910.5l-13.8 5.87 7.7-12.86z" fill="#5e5e5e"/><path d="M817.9 910.9l-17.9 7.6 10-16.68zm-13.02 3.35l9.7-4.12-4.27-4.92z" fill="#5e5e5e"/><use xlink:href="#d" transform="matrix(1,0,0,1,876.8182291294294,879.5130121658892) translate(0 14.222222222222223)"/><use xlink:href="#e" transform="matrix(1,0,0,1,876.8182291294294,879.5130121658892) translate(21.7283950617284 14.222222222222223)"/><path d="M840 1080c0 22.1-17.9 40-40 40s-40-17.9-40-40 17.9-40 40-40 40 17.9 40 40z" stroke="#5e5e5e" stroke-width="3" fill="#99d5ca"/><path d="M800 1002.5v17.5" stroke="#5e5e5e" stroke-width="2" fill="none"/><path d="M799.98 1001.5l1.02-.03v1.06h-2v-1.1z" fill="#5e5e5e"/><path d="M800 1035.26l-4.64-14.26h9.28z" stroke="#5e5e5e" stroke-width="2" fill="#5e5e5e"/><path d="M438.08 1081.5c0 22.1-17.9 40-40 40s-40-17.9-40-40 17.9-40 40-40 40 17.9 40 40z" stroke="#5e5e5e" stroke-width="3" fill="#c1e4f7"/><use xlink:href="#f" transform="matrix(1,0,0,1,363.08231441906685,1046.5009355795328) translate(14.012345679012345 39.65277777777778)"/><path d="M658.6 1115.33l31.92 17.65 18.75 9.34 13 5.8 9.74 3.87 7.6 2.65 6.13 1.85 5.06 1.3 4.24.9 3.63.63 3.15.4 2.75.23 2.43.1h2.17l1.96-.08 1.77-.15 1.6-.2 1.5-.25 1.36-.3 1.27-.32 1.18-.35 1.12-.38 1.04-.4.98-.45.94-.46.9-.48.84-.5.8-.55.8-.57.75-.6.73-.63.7-.67.7-.7.66-.74.66-.8.63-.83.63-.9.6-.97.6-1.03.6-1.13.57-1.2.55-1.34.54-1.45.52-1.6.5-1.76.46-1.98.42-2.22.37-2.5.3-2.88.22-3.3.06-2.87 2 .03-.06 2.9-.2 3.4-.32 2.95-.38 2.6-.44 2.3-.48 2.05-.52 1.86-.55 1.67-.57 1.53-.58 1.4-.6 1.3-.64 1.2-.64 1.1-.65 1.03-.68.97-.7.9-.7.86-.72.8-.75.77-.76.73-.8.68-.82.65-.85.6-.88.6-.93.55-.97.53-1 .5-1.07.47-1.12.45-1.17.4-1.27.4-1.34.34-1.45.3-1.57.27-1.7.22-1.85.16-2.04.08h-2.24l-2.52-.1-2.83-.24-3.22-.4-3.72-.64-4.33-.93-5.14-1.32-6.2-1.88-7.7-2.68-9.8-3.9-13.1-5.84-18.8-9.38-32-17.7-42.7-25.2h3.93zm-227.48-115.9l2.52.12 2.84.24 3.22.4 3.72.63 4.33.92 5.14 1.32 6.2 1.88 7.67 2.68 9.8 3.9 13.1 5.85 18.83 9.38 74.18 43.77h-3.94l-71.2-42-18.72-9.35-13.02-5.8-9.73-3.87-7.6-2.65-6.12-1.85-5.06-1.3-4.26-.9-3.63-.63-3.13-.4-2.76-.23-2.42-.1h-2.17l-1.94.08-1.77.15-1.63.2-1.48.25-1.38.3-1.27.32-1.18.35-1.1.38-1.05.4-.98.45-.94.46-.88.48-.85.5-.82.56-.78.56-.75.6-.73.63-.72.67-.7.7-.66.74-.65.8-.64.84-.63.9-.6.96-.6 1.04-.6 1.12-.57 1.2-.55 1.34-.54 1.45-.52 1.6-.13.46-1.94-.53.14-.52.55-1.67.57-1.53.6-1.4.6-1.3.62-1.2.64-1.1.66-1.03.67-.97.7-.9.7-.86.73-.8.75-.77.77-.72.8-.7.8-.64.86-.6.9-.6.92-.55.96-.53 1-.5 1.07-.47 1.12-.45 1.18-.4 1.27-.4 1.35-.34 1.45-.3 1.56-.27 1.7-.22 1.85-.16 2.04-.08z" fill="#5e5e5e"/><path d="M799.98 1121.5l1.02-.03-.02 1.08-2-.04.02-1.06zM404.8 1023.2l-6.32 13.6-2.87-14.74z" fill="#5e5e5e"/><path d="M406.3 1022.37l-8.22 17.63-3.72-19.1zm-7.43 11.2l4.45-9.55-6.47-.8z" fill="#5e5e5e"/><use xlink:href="#g" transform="matrix(1,0,0,1,553.3541321959674,1070.5250104846557) translate(0 14.222222222222223)"/><use xlink:href="#e" transform="matrix(1,0,0,1,553.3541321959674,1070.5250104846557) translate(66.17283950617285 14.222222222222223)"/><path d="M1040 1220c0 22.1-17.9 40-40 40s-40-17.9-40-40 17.9-40 40-40 40 17.9 40 40z" stroke="#5e5e5e" stroke-width="3" fill="#b391b5"/><path d="M800.08 1122.5l.05.26.06.25.06.27.1.25.08.27.12.25.13.28.13.28.17.3.2.3.2.32.26.33.3.35.32.36.38.4.45.4.52.45.6.5.74.52.87.58 1.06.64 1.3.72 1.65.82 2.1.93 2.78 1.1 3.77 1.3 5.34 1.62 8.1 2.07 13.8 2.9 34.62 5.67 73.9 11.34 13.8 2.9 8.1 2.08 5.34 1.6 3.77 1.3 1.5.6" stroke="#5e5e5e" stroke-width="2" fill="none"/><path d="M799.98 1121.5l1.02-.03.02 1.04-2 .05-.02-1.1z" fill="#5e5e5e"/><path d="M997.56 1176.37l-13.8-5.86 6.08-7z" stroke="#5e5e5e" stroke-width="2" fill="#5e5e5e"/><path d="M1240 980c0 22.1-17.9 40-40 40s-40-17.9-40-40 17.9-40 40-40 40 17.9 40 40z" stroke="#5e5e5e" stroke-width="3" fill="#a3d977"/><path d="M1040 980c0 22.1-17.9 40-40 40s-40-17.9-40-40 17.9-40 40-40 40 17.9 40 40z" stroke="#5e5e5e" stroke-width="3" fill="#b391b5"/><path d="M1142.64 837.75l8.95 7.08 6.97 6.02 5.75 5.4 4.86 4.95 4.2 4.66 3.67 4.43 3.24 4.26 2.87 4.14 2.57 4.06 2.32 4 2.07 3.97 1.86 3.95 1.66 3.97 1.5 4 1.3 4.06 1.16 4.14 1 4.22.82 4.34.08.53-1.98.3-.07-.5-.82-4.25-.97-4.15-1.13-4.04-1.3-4-1.45-3.9-1.63-3.9-1.83-3.88-2.04-3.9-2.27-3.93-2.53-4-2.83-4.07-3.2-4.2-3.6-4.37-4.15-4.6-4.8-4.9-5.68-5.32-6.93-5.97-8.84-7-27.52-18.47h3.6zM1001.1 686.52l.3 4.77.48 4.56.65 4.4.82 4.26.97 4.15 1.13 4.04 1.3 4 1.45 3.9 1.63 3.9 1.83 3.88 2.04 3.9 2.27 3.93 2.53 4 2.83 4.07 3.2 4.2 3.6 4.37 4.15 4.6 4.8 4.9 5.68 5.32 6.93 5.97 8.86 7.02 12.7 9.2 14.48 9.7h-3.6l-12.04-8.07-12.75-9.24-8.94-7.07-6.97-6.02-5.75-5.4-4.86-4.95-4.2-4.66-3.67-4.43-3.24-4.26-2.87-4.14-2.57-4.06-2.32-4-2.07-3.97-1.86-3.95-1.66-3.97-1.5-4-1.3-4.06-1.16-4.14-1-4.22-.82-4.34-.66-4.48-.5-4.66-.3-4.86-.08-4.07 2-.05z" fill="#5e5e5e"/><path d="M999.98 681.5l1.02-.03.02 1.04-2 .05-.02-1.1zM1199.74 935.27l-5.76-13.85 9.25-.74z" fill="#5e5e5e"/><path d="M1200 938.5l-7.47-17.96 12-.96zm-4.56-16.2l4.04 9.75 2.45-10.26z" fill="#5e5e5e"/><use xlink:href="#a" transform="matrix(1,0,0,1,1061.4210760176911,799.5649601252022) translate(0 14.222222222222223)"/><use xlink:href="#h" transform="matrix(1,0,0,1,1061.4210760176911,799.5649601252022) translate(64.0493827160494 14.222222222222223)"/><path d="M1157.5 980H1060" stroke="#5e5e5e" stroke-width="2" fill="none"/><path d="M1158.5 979.98l.03 1.02h-1.06v-2h1.1z" fill="#5e5e5e"/><path d="M1044.74 980l14.26-4.64v9.28z" stroke="#5e5e5e" stroke-width="2" fill="#5e5e5e"/><path d="M1000 1022.5V1160" stroke="#5e5e5e" stroke-width="2" fill="none"/><path d="M999.98 1021.5l1.02-.03v1.06h-2v-1.1z" fill="#5e5e5e"/><path d="M1000 1175.26l-4.64-14.26h9.28z" stroke="#5e5e5e" stroke-width="2" fill="#5e5e5e"/><path d="M638.08 1261.5c0 22.1-17.9 40-40 40s-40-17.9-40-40 17.9-40 40-40 40 17.9 40 40z" stroke="#5e5e5e" stroke-width="3" fill="#ff8f80"/><path d="M552.75 1185.07l9.67 3.35 6.8 2.68 5.07 2.26 3.93 1.95 3.16 1.74 2.56 1.56 2.13 1.4 1.8 1.3 1.5 1.22 1 .85-1.3 1.52-.96-.84-1.46-1.15-1.73-1.24-2.06-1.37-2.5-1.52-3.1-1.7-3.86-1.9-5-2.23-6.7-2.65-9.57-3.3-22.66-5.94V1179zm-153.6-60.7l.06.67.1.66.13.66.16.66.17.66.22.67.24.67.3.68.3.7.38.7.42.73.48.76.55.77.6.8.72.86.8.9.92.93 1.06 1 1.25 1.08 1.46 1.15 1.7 1.24 2.07 1.37 2.5 1.53 3.1 1.7 3.86 1.9 5 2.23 6.7 2.64 9.58 3.32 15.54 4.65 6.96 1.83v2.06l-7.5-1.96-15.6-4.67-9.66-3.35-6.78-2.68-5.08-2.25-3.95-1.96-3.15-1.74-2.58-1.56-2.13-1.4-1.8-1.3-1.52-1.22-1.3-1.13-1.13-1.06-1-1-.85-.97-.76-.9-.65-.9-.6-.84-.52-.83-.46-.8-.4-.8-.37-.76-.32-.75-.28-.75-.24-.74-.2-.74-.18-.74-.14-.74-.1-.75-.1-.76-.02-.47 2-.13z" fill="#5e5e5e"/><path d="M398.06 1123l1.02-.03.02 1.04-2 .05-.02-1.1zM596.58 1217.14l-10.74-10.48 8.2-4.3z" fill="#5e5e5e"/><path d="M598.08 1220l-13.92-13.58 10.64-5.6zm-10.56-13.1l7.55 7.37-1.78-10.4z" fill="#5e5e5e"/><use xlink:href="#i" transform="matrix(1,0,0,1,466.4996910788275,1161.109422199465) translate(0 14.222222222222223)"/><use xlink:href="#j" transform="matrix(1,0,0,1,466.4996910788275,1161.109422199465) translate(53.135802469135804 14.222222222222223)"/><path d="M438.08 1261.5c0 22.1-17.9 40-40 40s-40-17.9-40-40 17.9-40 40-40 40 17.9 40 40z" stroke="#5e5e5e" stroke-width="3" fill="#c1e4f7"/><use xlink:href="#k" transform="matrix(1,0,0,1,363.08231441906685,1226.5009355795328) translate(4.753086419753085 39.65277777777778)"/><path d="M555.58 1261.5h-97.5" stroke="#5e5e5e" stroke-width="2" fill="none"/><path d="M556.58 1261.48l.04 1.02h-1.07v-2h1.1z" fill="#5e5e5e"/><path d="M442.82 1261.5l14.27-4.63v9.27z" stroke="#5e5e5e" stroke-width="2" fill="#5e5e5e"/><path d="M1040 1360c0 22.1-17.9 40-40 40s-40-17.9-40-40 17.9-40 40-40 40 17.9 40 40z" stroke="#5e5e5e" stroke-width="3" fill="#b391b5"/><path d="M1000 1262.5v37.5" stroke="#5e5e5e" stroke-width="2" fill="none"/><path d="M999.98 1261.5l1.02-.03v1.06h-2v-1.1z" fill="#5e5e5e"/><path d="M1000 1315.26l-4.64-14.26h9.28z" stroke="#5e5e5e" stroke-width="2" fill="#5e5e5e"/><path d="M944 1338.93l-.4 1.96-10.22-2.1.4-1.96zm-20.42-4.18l-.4 1.96-20.42-4.17.4-1.96zm-30.62-6.27l-.4 1.96-20.42-4.2.4-1.94zm-30.63-6.28l-.4 1.96-15.6-3.2h9.97zm-110.16-22.57h-2.2l.08-.43zm-12.33-2.52l-.4 1.97-20.4-4.2.4-1.95zm-30.62-6.27l-.4 1.96-20.42-4.2.4-1.95zm-30.62-6.27l-.4 1.96-20.42-4.18.4-1.96zm-30.63-6.28l-.4 1.96-10.2-2.1.4-1.95z" fill="#5e5e5e"/><path d="M637.8 1276.2l-.4 1.96-1.25-.26.56-1.2.23-.68zM958.75 1342.98l-14.9 1.68 1.85-9.1z" fill="#5e5e5e"/><path d="M961.92 1343.63l-19.33 2.17 2.4-11.77zm-16.82-.12l10.48-1.17-9.17-5.2z" fill="#5e5e5e"/><use xlink:href="#l" transform="matrix(1,0,0,1,734.2394007264137,1299.633642639171) translate(0 14.222222222222223)"/><use xlink:href="#m" transform="matrix(1,0,0,1,734.2394007264137,1299.633642639171) translate(67.01234567901236 14.222222222222223)"/><use xlink:href="#n" transform="matrix(1,0,0,1,734.2394007264137,1299.633642639171) translate(120.14814814814815 14.222222222222223)"/><path d="M640 1737c0 22.08-17.9 40-40 40s-40-17.92-40-40c0-22.1 17.9-40 40-40s40 17.9 40 40z" stroke="#5e5e5e" stroke-width="3" fill="#ff8f80"/><path d="M531.62 1530.48l11.68 12.94 8.7 10.5 7.1 9.33 6 8.63 5.2 8.2 4.6 7.97 4.1 7.83 3.67 7.8 3.3 7.82 2.94 7.94 2.64 8.1 2.33 8.35 2.03 8.65 1.73 9.04 1.4 9.5 1.06 10.07.22 3.77-2 .13-.23-3.74-1.05-10-1.4-9.4-1.7-8.97-2-8.57-2.32-8.28-2.6-8.03-2.93-7.86-3.26-7.75-3.63-7.73-4.05-7.75-4.55-7.9-5.17-8.14-5.96-8.56-7.03-9.25-8.65-10.44-11.63-12.87-21.93-21.85h2.83zm-132.3-216l.67 10.68 1.04 10 1.4 9.4 1.7 8.97 2 8.57 2.3 8.27 2.62 8.03 2.92 7.85 3.26 7.76 3.63 7.72 4.06 7.76 4.56 7.9 5.16 8.13 5.95 8.57 7.04 9.25 8.65 10.45 11.6 12.87 21.76 22.04h-2.8l-20.4-20.67-11.68-12.93-8.7-10.5-7.1-9.32-6-8.63-5.2-8.22-4.6-7.96-4.1-7.83-3.67-7.78-3.28-7.83-2.95-7.94-2.63-8.1-2.33-8.36-2.02-8.65-1.72-9.04-1.4-9.5-1.06-10.07-.68-10.76-.22-10.54 2-.04zM398.06 1303l1.02-.03.02 1.04-2 .05-.02-1.1zM599.88 1692.26l-5.15-14.1 9.26-.33z" fill="#5e5e5e"/><path d="M600 1695.5l-6.68-18.28 12-.44zm-3.86-16.38l3.62 9.9 2.9-10.14z" fill="#5e5e5e"/><use xlink:href="#i" transform="matrix(1,0,0,1,467.43759147720726,1488.6807681651355) translate(0 14.222222222222223)"/><use xlink:href="#o" transform="matrix(1,0,0,1,467.43759147720726,1488.6807681651355) translate(53.135802469135804 14.222222222222223)"/><path d="M1000 122.5V160" stroke="#5e5e5e" stroke-width="2" fill="none"/><path d="M999.98 121.5l1.02-.03v1.06h-2v-1.1z" fill="#5e5e5e"/><path d="M1000 175.26L995.36 161h9.28z" stroke="#5e5e5e" stroke-width="2" fill="#5e5e5e"/><path d="M1000 862.5V920" stroke="#5e5e5e" stroke-width="2" fill="none"/><path d="M999.98 861.5l1.02-.03v1.06h-2v-1.1z" fill="#5e5e5e"/><path d="M1000 935.26L995.36 921h9.28z" stroke="#5e5e5e" stroke-width="2" fill="#5e5e5e"/><path d="M1240 1520c0 22.1-17.9 40-40 40s-40-17.9-40-40 17.9-40 40-40 40 17.9 40 40zM1240 1660c0 22.1-17.9 40-40 40s-40-17.9-40-40 17.9-40 40-40 40 17.9 40 40z" stroke="#5e5e5e" stroke-width="3" fill="#a3d977"/><path d="M1160.6 1452.16l9.1 2.74 6.24 2.16 4.57 1.8 3.48 1.54 2.72 1.35 2.18 1.2.97.6-1.03 1.7-.94-.57-2.1-1.16-2.65-1.3-3.4-1.5-4.48-1.78-6.16-2.14-9-2.7-21.75-4.62v-2.04zm-159.52-49.4l.06.4.08.4.1.4.1.43.14.4.16.43.18.43.2.44.25.46.27.47.3.48.36.52.4.53.47.56.53.6.62.63.7.67.85.72.98.78 1.18.85 1.4.94 1.72 1.02 2.1 1.16 2.65 1.3 3.4 1.5 4.48 1.78 6.16 2.14 9.02 2.7 14.83 3.78 6.76 1.44v2.04l-7.2-1.53-14.9-3.8-9.1-2.73-6.24-2.16-4.57-1.8-3.48-1.54-2.72-1.35-2.18-1.2-1.78-1.07-1.47-.98-1.24-.9-1.05-.83-.9-.78-.78-.74-.67-.7-.6-.64-.5-.62-.46-.6-.4-.58-.36-.56-.3-.54-.28-.53-.24-.53-.22-.5-.2-.5-.15-.5-.12-.5-.12-.5-.1-.48-.07-.5-.05-.4 2-.2z" fill="#5e5e5e"/><path d="M999.98 1401.5l1.02-.03.02 1.04-2 .05-.02-1.1zM1198.05 1475.92l-12.3-8.6 7.4-5.58z" fill="#5e5e5e"/><path d="M1200 1478.5l-15.95-11.13 9.6-7.25zm-12.55-11.2l8.65 6.04-3.45-9.97z" fill="#5e5e5e"/><use xlink:href="#a" transform="matrix(1,0,0,1,1061.5112326117307,1429.6316141758941) translate(0 14.222222222222223)"/><use xlink:href="#p" transform="matrix(1,0,0,1,1061.5112326117307,1429.6316141758941) translate(64.0493827160494 14.222222222222223)"/><path d="M1040 1520c0 22.1-17.9 40-40 40s-40-17.9-40-40 17.9-40 40-40 40 17.9 40 40zM1040 1660c0 22.1-17.9 40-40 40s-40-17.9-40-40 17.9-40 40-40 40 17.9 40 40z" stroke="#5e5e5e" stroke-width="3" fill="#b391b5"/><path d="M1000 1402.5v57.5" stroke="#5e5e5e" stroke-width="2" fill="none"/><path d="M999.98 1401.5l1.02-.03v1.06h-2v-1.1z" fill="#5e5e5e"/><path d="M1000 1475.26l-4.64-14.26h9.28z" stroke="#5e5e5e" stroke-width="2" fill="#5e5e5e"/><path d="M1000 1562.5v37.5" stroke="#5e5e5e" stroke-width="2" fill="none"/><path d="M999.98 1561.5l1.02-.03v1.06h-2v-1.1z" fill="#5e5e5e"/><path d="M1000 1615.26l-4.64-14.26h9.28z" stroke="#5e5e5e" stroke-width="2" fill="#5e5e5e"/><path d="M1200 1562.5v37.5" stroke="#5e5e5e" stroke-width="2" fill="none"/><path d="M1199.98 1561.5l1.02-.03v1.06h-2v-1.1z" fill="#5e5e5e"/><path d="M1200 1615.26l-4.64-14.26h9.28z" stroke="#5e5e5e" stroke-width="2" fill="#5e5e5e"/><path d="M1157.5 1520H1060" stroke="#5e5e5e" stroke-width="2" fill="none"/><path d="M1158.5 1519.98l.03 1.02h-1.06v-2h1.1z" fill="#5e5e5e"/><path d="M1044.74 1520l14.26-4.64v9.28z" stroke="#5e5e5e" stroke-width="2" fill="#5e5e5e"/><path d="M1157.5 1660H1060" stroke="#5e5e5e" stroke-width="2" fill="none"/><path d="M1158.5 1659.98l.03 1.02h-1.06v-2h1.1z" fill="#5e5e5e"/><path d="M1044.74 1660l14.26-4.64v9.28z" stroke="#5e5e5e" stroke-width="2" fill="#5e5e5e"/><path d="M840 1800c0 22.1-17.9 40-40 40s-40-17.9-40-40 17.9-40 40-40 40 17.9 40 40z" stroke="#5e5e5e" stroke-width="3" fill="#99d5ca"/><path d="M876.82 1734.75l-30.9 4.75-13.74 2.9-8.07 2.04-5.3 1.6-3.72 1.3-1.48.57-.73-1.85 1.5-.6 3.82-1.32 5.38-1.6 8.14-2.1 13.84-2.9 31.26-4.8zm124.08-32.07l-.05.3-.07.28-.1.3-.08.3-.1.3-.14.3-.15.3-.16.33-.2.32-.2.34-.24.35-.28.37-.3.38-.37.4-.4.42-.5.44-.54.48-.63.5-.76.56-.9.6-1.1.67-1.34.75-1.7.83-2.13.96-2.8 1.1-3.82 1.33-5.38 1.6-8.14 2.1-13.83 2.9-31.2 5.12v-2.04l30.83-5.06 13.74-2.9 8.07-2.04 5.3-1.6 3.72-1.3 2.73-1.07 2.07-.93 1.6-.8 1.3-.7 1-.6.85-.57.7-.5.57-.46.5-.42.4-.38.35-.36.3-.34.25-.3.23-.3.2-.3.16-.26.15-.25.12-.25.1-.23.1-.23.1-.23.06-.22.06-.22.05-.2.03-.25z" fill="#5e5e5e"/><path d="M999.98 1701.5l1.02-.03-.02 1.08-2-.04.02-1.06zM816.25 1750.5l-13.8 5.87 7.7-12.86z" fill="#5e5e5e"/><path d="M817.9 1750.9l-17.9 7.6 10-16.68zm-13.02 3.35l9.7-4.12-4.27-4.92z" fill="#5e5e5e"/><use xlink:href="#d" transform="matrix(1,0,0,1,876.8182291294293,1719.5130121658892) translate(0 14.222222222222223)"/><use xlink:href="#q" transform="matrix(1,0,0,1,876.8182291294293,1719.5130121658892) translate(21.7283950617284 14.222222222222223)"/><path d="M440 1737c0 22.08-17.9 40-40 40s-40-17.92-40-40c0-22.1 17.9-40 40-40s40 17.9 40 40z" stroke="#5e5e5e" stroke-width="3" fill="#c1e4f7"/><use xlink:href="#r" transform="matrix(1,0,0,1,365,1701.9917020938506) translate(4.753086419753085 39.65277777777778)"/><path d="M557.5 1737H460" stroke="#5e5e5e" stroke-width="2" fill="none"/><path d="M558.5 1736.97l.03 1.02h-1.06v-2h1.1z" fill="#5e5e5e"/><path d="M444.74 1737l14.26-4.64v9.27z" stroke="#5e5e5e" stroke-width="2" fill="#5e5e5e"/><path d="M840 1980c0 22.1-17.9 40-40 40s-40-17.9-40-40 17.9-40 40-40 40 17.9 40 40z" stroke="#5e5e5e" stroke-width="3" fill="#99d5ca"/><path d="M755.32 1942.8l-1.7 1.07-5.55-8.94 1.7-1.05zm-11.1-17.86l-1.7 1.05-11.1-17.88 1.7-1.05zm-16.65-26.8l-1.7 1.05-11.1-17.88 1.7-1.06zm-16.65-26.82l-1.7 1.06-11.1-17.87 1.7-1.05zm-16.65-26.8l-1.7 1.05-11.1-17.87 1.7-1.05zm-16.65-26.8l-1.7 1.05-11.1-17.88 1.7-1.06zm-16.65-26.82l-1.7 1.06-11.1-17.87 1.7-1.07zm-16.65-26.8l-1.7 1.05-5.55-8.94 1.7-1.04z" fill="#5e5e5e"/><path d="M638.78 1755.18l-1.7 1.06-.2-.32 1.02-2.16zM762.52 1956.3l-11.46-9.67 7.87-4.9z" fill="#5e5e5e"/><path d="M764.23 1959.06l-14.87-12.55 10.22-6.33zm-11.47-12.3l8.06 6.8-2.53-10.24z" fill="#5e5e5e"/><path d="M800 1842.5v77.5" stroke="#5e5e5e" stroke-width="2" fill="none"/><path d="M799.98 1841.5l1.02-.03v1.06h-2v-1.1z" fill="#5e5e5e"/><path d="M800 1935.26l-4.64-14.26h9.28z" stroke="#5e5e5e" stroke-width="2" fill="#5e5e5e"/><path d="M1240 1800c0 22.1-17.9 40-40 40s-40-17.9-40-40 17.9-40 40-40 40 17.9 40 40z" stroke="#5e5e5e" stroke-width="3" fill="#a3d977"/><path d="M1154.44 1737.53l13.84 2.9 8.14 2.1 5.4 1.6 3.8 1.32 1.5.6-.72 1.86-1.48-.57-3.72-1.3-5.3-1.6-8.08-2.04-13.73-2.9-16.18-2.48V1735zm-153.33-34.98l.06.2.06.23.07.2.07.24.1.23.1.23.14.25.16.25.17.27.2.28.22.3.26.3.3.35.36.36.4.38.5.42.58.46.7.5.83.56 1.02.62 1.27.7 1.6.8 2.08.9 2.73 1.1 3.72 1.28 5.3 1.6 8.08 2.05 13.74 2.9 16.1 2.65v2.02l-16.47-2.7-13.83-2.9-8.14-2.1-5.4-1.6-3.8-1.32-2.8-1.1-2.15-.97-1.7-.83-1.33-.74-1.1-.65-.9-.6-.77-.56-.64-.52-.56-.47-.48-.43-.4-.42-.37-.4-.32-.38-.28-.36-.24-.34-.2-.34-.2-.33-.17-.33-.16-.3-.13-.32-.1-.3-.1-.3-.08-.3-.07-.28-.05-.3 1.97-.36z" fill="#5e5e5e"/><path d="M999.98 1701.5l1.02-.03.02 1.04-2 .05-.02-1.1zM1197.56 1756.37l-13.8-5.86 6.08-7z" fill="#5e5e5e"/><path d="M1200 1758.5l-17.9-7.6 7.9-9.08zm-14.6-8.37l9.72 4.12-5.43-9.04z" fill="#5e5e5e"/><use xlink:href="#a" transform="matrix(1,0,0,1,1062.0212770434102,1719.5130121658892) translate(0 14.222222222222223)"/><use xlink:href="#s" transform="matrix(1,0,0,1,1062.0212770434102,1719.5130121658892) translate(64.0493827160494 14.222222222222223)"/><path d="M1040 1800c0 22.1-17.9 40-40 40s-40-17.9-40-40 17.9-40 40-40 40 17.9 40 40z" stroke="#5e5e5e" stroke-width="3" fill="#b391b5"/><path d="M1000 1702.5v37.5" stroke="#5e5e5e" stroke-width="2" fill="none"/><path d="M999.98 1701.5l1.02-.03v1.06h-2v-1.1z" fill="#5e5e5e"/><path d="M1000 1755.26l-4.64-14.26h9.28z" stroke="#5e5e5e" stroke-width="2" fill="#5e5e5e"/><path d="M1157.5 1800H1060" stroke="#5e5e5e" stroke-width="2" fill="none"/><path d="M1158.5 1799.98l.03 1.02h-1.06v-2h1.1z" fill="#5e5e5e"/><path d="M1044.74 1800l14.26-4.64v9.28z" stroke="#5e5e5e" stroke-width="2" fill="#5e5e5e"/><path d="M1040 1980c0 22.1-17.9 40-40 40s-40-17.9-40-40 17.9-40 40-40 40 17.9 40 40z" stroke="#5e5e5e" stroke-width="3" fill="#b391b5"/><path d="M1000 1842.5v77.5" stroke="#5e5e5e" stroke-width="2" fill="none"/><path d="M999.98 1841.5l1.02-.03v1.06h-2v-1.1z" fill="#5e5e5e"/><path d="M1000 1935.26l-4.64-14.26h9.28z" stroke="#5e5e5e" stroke-width="2" fill="#5e5e5e"/><path d="M1040 2160c0 22.1-17.9 40-40 40s-40-17.9-40-40 17.9-40 40-40 40 17.9 40 40z" stroke="#5e5e5e" stroke-width="3" fill="#b391b5"/><path d="M800.03 2022.5l.03.45.08.72.1.7.13.7.17.7.2.7.22.7.27.7.3.73.34.74.4.74.44.77.5.8.57.8.65.85.73.88.83.92.95.98 1.1 1.03 1.28 1.1 1.5 1.2 1.76 1.27 2.1 1.4 2.53 1.52 3.1 1.7 3.92 1.94 5.04 2.24 6.75 2.66 9.62 3.33 15.57 4.67 93.18 24.4 9.6 3.32 6.76 2.66 5.04 2.24 3.9 1.94 3.13 1.7 2.54 1.54 2.1 1.4 1.76 1.27 1.5 1.2.97.83" stroke="#5e5e5e" stroke-width="2" fill="none"/><path d="M799.98 2021.5l1.02-.03.02 1.04-2 .05-.02-1.1z" fill="#5e5e5e"/><path d="M998.5 2115.63l-10.74-10.47 8.2-4.3z" stroke="#5e5e5e" stroke-width="2" fill="#5e5e5e"/><path d="M1000 2022.5v77.5" stroke="#5e5e5e" stroke-width="2" fill="none"/><path d="M999.98 2021.5l1.02-.03v1.06h-2v-1.1z" fill="#5e5e5e"/><path d="M1000 2115.26l-4.64-14.26h9.28z" stroke="#5e5e5e" stroke-width="2" fill="#5e5e5e"/><path d="M440 1980c0 22.1-17.9 40-40 40s-40-17.9-40-40 17.9-40 40-40 40 17.9 40 40z" stroke="#5e5e5e" stroke-width="3" fill="#c1e4f7"/><use xlink:href="#t" transform="matrix(1,0,0,1,365,1945) translate(14.012345679012345 39.65277777777778)"/><path d="M663.27 2017.02l29.9 16.53 18 8.96 12.58 5.64 9.45 3.75 7.4 2.57 5.98 1.8 4.94 1.28 4.16.9 3.56.6 3.08.4 2.7.22 2.4.1h2.12l1.92-.08 1.75-.16 1.6-.2 1.45-.24 1.35-.3 1.25-.3 1.16-.36 1.1-.38 1.03-.4.97-.44.92-.46.88-.48.84-.5.8-.54.78-.56.74-.6.72-.62.7-.65.68-.7.67-.73.64-.78.64-.84.63-.9.6-.95.6-1 .58-1.13.57-1.2.56-1.32.53-1.44.52-1.58.5-1.76.45-1.96.42-2.2.37-2.5.3-2.87.2-3.3.06-2.84 2 .03-.06 2.9-.2 3.37-.32 2.94-.38 2.58-.43 2.3-.5 2.04-.5 1.84-.55 1.67-.56 1.52-.6 1.38-.6 1.28-.62 1.2-.64 1.1-.65 1.02-.68.95-.68.9-.7.85-.72.8-.74.75-.76.72-.78.68-.8.64-.86.6-.87.6-.9.54-.95.54-1 .5-1.04.46-1.1.43-1.17.4-1.25.4-1.33.33-1.42.3-1.55.26-1.67.2-1.8.16-2 .1h-2.23l-2.48-.12-2.8-.23-3.16-.4-3.64-.62-4.24-.9-5.02-1.3-6.06-1.83-7.48-2.6-9.53-3.8-12.66-5.65-18.06-9-29.97-16.57-46.53-27.63h3.92zm-230.64-118.8l2.48.12 2.8.23 3.16.4 3.64.62 4.24.9 5.02 1.3 6.06 1.83 7.48 2.6 9.53 3.8 12.66 5.65 18.07 9 75.96 45.1h-3.92l-73-43.34-17.96-8.95-12.6-5.64-9.44-3.75-7.4-2.57-5.98-1.8-4.94-1.28-4.16-.9-3.56-.6-3.08-.4-2.7-.22-2.4-.1h-2.12l-1.92.08-1.75.16-1.6.2-1.45.24-1.35.3-1.25.3-1.16.36-1.1.38-1.03.4-.97.44-.92.46-.88.48-.84.5-.8.54-.78.56-.74.6-.72.62-.7.65-.68.7-.67.73-.64.78-.64.84-.63.9-.6.95-.6 1-.58 1.13-.57 1.2-.56 1.32-.53 1.44-.52 1.58-.1.38-1.93-.53.1-.43.55-1.67.56-1.52.6-1.38.6-1.28.62-1.2.64-1.1.65-1.02.68-.95.68-.9.7-.85.72-.8.74-.75.76-.72.78-.68.8-.64.86-.6.87-.6.9-.54.95-.54 1-.5 1.04-.46 1.1-.43 1.17-.4 1.25-.4 1.33-.33 1.42-.3 1.55-.26 1.67-.2 1.8-.16 2-.1z" fill="#5e5e5e"/><path d="M799.98 2021.5l1.02-.03-.02 1.08-2-.04.02-1.06zM406.74 1921.7l-6.34 13.6-2.86-14.74z" fill="#5e5e5e"/><path d="M408.23 1920.87L400 1938.5l-3.7-19.1zm-7.44 11.2l4.45-9.55-6.47-.8z" fill="#5e5e5e"/><use xlink:href="#g" transform="matrix(1,0,0,1,554.3035301461647,1969.789695858864) translate(0 14.222222222222223)"/><use xlink:href="#q" transform="matrix(1,0,0,1,554.3035301461647,1969.789695858864) translate(66.17283950617285 14.222222222222223)"/><path d="M320-174c0-3.3 2.7-6 6-6h148c3.3 0 6 2.7 6 6v68c0 3.3-2.7 6-6 6H326c-3.3 0-6-2.7-6-6z" stroke="#5e5e5e" stroke-width="3" fill="#c1e4f7"/><use xlink:href="#u" transform="matrix(1,0,0,1,325,-175) translate(38.641975308641975 39.65277777777778)"/><path d="M520-174c0-3.3 2.7-6 6-6h148c3.3 0 6 2.7 6 6v68c0 3.3-2.7 6-6 6H526c-3.3 0-6-2.7-6-6z" stroke="#5e5e5e" stroke-width="3" fill="#ff8f80"/><use xlink:href="#v" transform="matrix(1,0,0,1,525,-175) translate(42.31481481481481 26.52777777777778)"/><use xlink:href="#w" transform="matrix(1,0,0,1,525,-175) translate(101.51234567901236 26.52777777777778)"/><use xlink:href="#x" transform="matrix(1,0,0,1,525,-175) translate(11.481481481481467 53.19444444444445)"/><path d="M720-179c0-3.3 2.7-6 6-6h148c3.3 0 6 2.7 6 6v78c0 3.3-2.7 6-6 6H726c-3.3 0-6-2.7-6-6z" stroke="#5e5e5e" stroke-width="3" fill="#99d5ca"/><use xlink:href="#y" transform="matrix(1,0,0,1,725,-180) translate(38.641975308641975 17.77777777777778)"/><use xlink:href="#z" transform="matrix(1,0,0,1,725,-180) translate(20.70987654320988 44.44444444444444)"/><use xlink:href="#A" transform="matrix(1,0,0,1,725,-180) translate(123.11728395061729 44.44444444444444)"/><use xlink:href="#B" transform="matrix(1,0,0,1,725,-180) translate(45.401234567901234 71.11111111111111)"/><path d="M920-174c0-3.3 2.7-6 6-6h148c3.3 0 6 2.7 6 6v68c0 3.3-2.7 6-6 6H926c-3.3 0-6-2.7-6-6z" stroke="#5e5e5e" stroke-width="3" fill="#b391b5"/><use xlink:href="#C" transform="matrix(1,0,0,1,925,-175) translate(36.141975308641975 39.65277777777778)"/><path d="M1120-174c0-3.3 2.7-6 6-6h148c3.3 0 6 2.7 6 6v68c0 3.3-2.7 6-6 6h-148c-3.3 0-6-2.7-6-6z" stroke="#5e5e5e" stroke-width="3" fill="#a3d977"/><use xlink:href="#D" transform="matrix(1,0,0,1,1125,-175) translate(40.46296296296296 39.65277777777778)"/><path d="M800.03 1842.5l.03.45.08.72.1.7.13.7.17.7.2.7.22.7.27.7.3.73.34.74.4.74.44.77.5.8.57.8.65.85.73.88.83.92.95.98 1.1 1.03 1.28 1.1 1.5 1.2 1.76 1.27 2.1 1.4 2.53 1.52 3.1 1.7 3.92 1.94 5.04 2.24 6.75 2.66 9.62 3.33 15.57 4.67 93.18 24.4 9.6 3.32 6.76 2.66 5.04 2.24 3.9 1.94 3.13 1.7 2.54 1.54 2.1 1.4 1.76 1.27 1.5 1.2.97.83" stroke="#5e5e5e" stroke-width="2" fill="none"/><path d="M799.98 1841.5l1.02-.03.02 1.04-2 .05-.02-1.1z" fill="#5e5e5e"/><path d="M998.5 1935.63l-10.74-10.47 8.2-4.3z" stroke="#5e5e5e" stroke-width="2" fill="#5e5e5e"/><path d="M685.3 1794.2c2.78-1.8 6.5-1 8.3 1.78l47.9 73.82c1.8 2.78 1 6.5-1.77 8.3l-40.26 26.13c-2.78 1.8-6.5 1-8.3-1.77l-47.9-73.82c-1.8-2.78-1.02-6.5 1.76-8.3z" stroke="#000" stroke-opacity="0" stroke-width="3" fill="#fff" fill-opacity="0"/><use xlink:href="#E" transform="matrix(0.5443668034115908,0.8388472944126639,-0.8388472944126639,0.5443668034115908,688.8584352097544,1797.8625191419796) translate(13.962962962962969 17.34722222222222)"/><use xlink:href="#F" transform="matrix(0.5443668034115908,0.8388472944126639,-0.8388472944126639,0.5443668034115908,688.8584352097544,1797.8625191419796) translate(13.493827160493836 38.68055555555556)"/><use xlink:href="#G" transform="matrix(0.5443668034115908,0.8388472944126639,-0.8388472944126639,0.5443668034115908,688.8584352097544,1797.8625191419796) translate(66.62962962962962 38.68055555555556)"/><path d="M1040 640c0 22.1-17.9 40-40 40s-40-17.9-40-40 17.9-40 40-40 40 17.9 40 40z" stroke="#5e5e5e" stroke-width="3" fill="#b391b5"/><path d="M840 820c0 22.1-17.9 40-40 40s-40-17.9-40-40 17.9-40 40-40 40 17.9 40 40z" stroke="#5e5e5e" stroke-width="3" fill="#99d5ca"/><path d="M842.5 820H940" stroke="#5e5e5e" stroke-width="2" fill="none"/><path d="M842.53 821h-1.1l.07-.98-.03-1.02h1.06z" fill="#5e5e5e"/><path d="M955.26 820L941 824.64v-9.28z" stroke="#5e5e5e" stroke-width="2" fill="#5e5e5e"/><path d="M1000 682.5V760" stroke="#5e5e5e" stroke-width="2" fill="none"/><path d="M999.98 681.5l1.02-.03v1.06h-2v-1.1z" fill="#5e5e5e"/><path d="M1000 775.26L995.36 761h9.28z" stroke="#5e5e5e" stroke-width="2" fill="#5e5e5e"/><path d="M864.64 740.58l-18.73 4.9-9.54 3.32-6.7 2.65-5 2.22-3.9 1.9-3.07 1.7-2.5 1.52-2.07 1.36-1.73 1.25-1.45 1.16-.96.83-1.32-1.53 1-.85 1.5-1.2 1.8-1.3 2.14-1.42 2.57-1.56 3.15-1.73 3.95-1.94 5.07-2.26 6.8-2.68 9.66-3.35 19.3-5.06zm136.33-58.02l-.03.48-.08.75-.1.74-.15.74-.17.74-.2.74-.25.74-.28.75-.32.76-.36.78-.4.8-.47.8-.52.8-.6.86-.66.88-.76.9-.85.97-.98 1-1.13 1.05-1.3 1.13-1.53 1.2-1.8 1.3-2.12 1.42-2.57 1.56-3.15 1.73-3.95 1.94-5.07 2.26-6.8 2.68-9.64 3.34-15.62 4.68-3.57.94v-2.07l3.04-.8 15.53-4.65 9.57-3.32 6.7-2.65 5-2.22 3.9-1.9 3.07-1.7 2.5-1.52 2.07-1.36 1.73-1.25 1.45-1.16 1.25-1.07 1.07-1 .92-.95.8-.9.7-.84.62-.82.54-.78.48-.75.42-.73.37-.7.33-.7.28-.68.25-.68.2-.66.2-.66.15-.66.12-.66.1-.66.07-.67.03-.43z" fill="#5e5e5e"/><path d="M999.98 681.5l1.02-.03-.02 1.08-2-.04.02-1.06zM812.24 765.16l-10.74 10.47 2.53-14.78z" fill="#5e5e5e"/><path d="M813.93 764.9L800 778.5l3.28-19.18zM803 772.78l7.56-7.37-5.77-3.03z" fill="#5e5e5e"/><use xlink:href="#H" transform="matrix(1,0,0,1,864.6443517353011,719.6084866199321) translate(0 14.222222222222223)"/><use xlink:href="#b" transform="matrix(1,0,0,1,864.6443517353011,719.6084866199321) translate(58.074074074074076 14.222222222222223)"/><path d="M855.96 1847.34c.82-3.2 4.1-5.15 7.3-4.33l94.2 24.1c3.22.8 5.16 4.08 4.34 7.3l-15.35 60.06c-.82 3.2-4.1 5.15-7.3 4.32l-94.2-24.07c-3.22-.8-5.16-4.08-4.34-7.3z" stroke="#000" stroke-opacity="0" stroke-width="3" fill="#fff" fill-opacity="0"/><use xlink:href="#E" transform="matrix(0.9688655774185704,0.2475873439685079,-0.2475873439685079,0.9688655774185704,861.0519872586051,1847.6097989707) translate(18.96296296296297 26.22222222222222)"/><use xlink:href="#I" transform="matrix(0.9688655774185704,0.2475873439685079,-0.2475873439685079,0.9688655774185704,861.0519872586051,1847.6097989707) translate(1.6296296296296404 47.55555555555555)"/><use xlink:href="#J" transform="matrix(0.9688655774185704,0.2475873439685079,-0.2475873439685079,0.9688655774185704,861.0519872586051,1847.6097989707) translate(77.67901234567901 47.55555555555555)"/><path d="M420 60c0 11.05-8.95 20-20 20s-20-8.95-20-20 8.95-20 20-20 20 8.95 20 20zM420 160c0 11.05-8.95 20-20 20s-20-8.95-20-20 8.95-20 20-20 20 8.95 20 20z" stroke="#5e5e5e" stroke-width="2" fill="#e5e5e5"/><path d="M400 82v38.5" stroke="#5e5e5e" stroke-width="2" fill="none"/><path d="M399.96 81l1.04-.03v1.06h-2v-1.15z" fill="#5e5e5e"/><path d="M400 135.76l-4.64-14.26h9.28z" stroke="#5e5e5e" stroke-width="2" fill="#5e5e5e"/><path d="M440 46c0-3.3 2.7-6 6-6h128c3.3 0 6 2.7 6 6v128c0 3.3-2.7 6-6 6H446c-3.3 0-6-2.7-6-6z" fill="none"/><path d="M440 180c5.52 0 10-4.48 10-10v-50c0-5.52 4.48-10 10-10-5.52 0-10-4.48-10-10V50c0-5.52-4.48-10-10-10" stroke="#5e5e5e" stroke-width="2" fill="none"/><use xlink:href="#K" transform="matrix(1,0,0,1,475,45) translate(0 56.111111111111114)"/><use xlink:href="#L" transform="matrix(1,0,0,1,475,45) translate(0 82.77777777777777)"/><use xlink:href="#M" transform="matrix(1,0,0,1,475,45) translate(30.864197530864196 82.77777777777777)"/><path d="M420 240c0 11.05-8.95 20-20 20s-20-8.95-20-20 8.95-20 20-20 20 8.95 20 20zM500 320c0 11.05-8.95 20-20 20s-20-8.95-20-20 8.95-20 20-20 20 8.95 20 20z" stroke="#5e5e5e" stroke-width="2" fill="#e5e5e5"/><path d="M400.08 262l.04.23.08.4.12.4.15.4.18.43.2.42.27.45.32.46.37.48.47.52.56.57.7.62.88.68 1.15.77 1.5.9 2.07 1.07 3 1.3 4.77 1.75 9.52 2.8 36.7 9.46 3.72 1.36" stroke="#5e5e5e" stroke-width="2" fill="none"/><path d="M399.96 261l1.04-.03.03 1.03-2 .06-.03-1.18z" fill="#5e5e5e"/><path d="M477.56 296.87l-13.8-5.9 6.12-6.98z" stroke="#5e5e5e" stroke-width="2" fill="#5e5e5e"/><path d="M520 226c0-3.3 2.7-6 6-6h108c3.3 0 6 2.7 6 6v108c0 3.3-2.7 6-6 6H526c-3.3 0-6-2.7-6-6z" fill="none"/><path d="M520 340c5.52 0 10-4.48 10-10v-40c0-5.52 4.48-10 10-10-5.52 0-10-4.48-10-10v-40c0-5.52-4.48-10-10-10" stroke="#5e5e5e" stroke-width="2" fill="none"/><use xlink:href="#N" transform="matrix(1,0,0,1,555,225) translate(0 46.111111111111114)"/><use xlink:href="#O" transform="matrix(1,0,0,1,555,225) translate(0 72.77777777777777)"/><path d="M420 400c0 11.05-8.95 20-20 20s-20-8.95-20-20 8.95-20 20-20 20 8.95 20 20zM500 480c0 11.05-8.95 20-20 20s-20-8.95-20-20 8.95-20 20-20 20 8.95 20 20z" stroke="#5e5e5e" stroke-width="2" fill="#e5e5e5"/><path d="M400.08 422l.04.23.08.4.12.4.15.4.18.43.2.42.27.45.32.46.37.48.47.52.56.57.7.62.88.68 1.15.77 1.5.9 2.07 1.07 3 1.3 4.77 1.75 9.52 2.8 36.7 9.46 3.72 1.36" stroke="#5e5e5e" stroke-width="2" fill="none"/><path d="M399.96 421l1.04-.03.03 1.03-2 .06-.03-1.18z" fill="#5e5e5e"/><path d="M477.56 456.87l-13.8-5.9 6.12-6.98z" stroke="#5e5e5e" stroke-width="2" fill="#5e5e5e"/><path d="M520 386c0-3.3 2.7-6 6-6h108c3.3 0 6 2.7 6 6v108c0 3.3-2.7 6-6 6H526c-3.3 0-6-2.7-6-6z" fill="none"/><path d="M520 500c5.52 0 10-4.48 10-10v-40c0-5.52 4.48-10 10-10-5.52 0-10-4.48-10-10v-40c0-5.52-4.48-10-10-10" stroke="#5e5e5e" stroke-width="2" fill="none"/><use xlink:href="#P" transform="matrix(1,0,0,1,555,385) translate(0 32.77777777777778)"/><use xlink:href="#Q" transform="matrix(1,0,0,1,555,385) translate(0 59.44444444444445)"/><use xlink:href="#R" transform="matrix(1,0,0,1,555,385) translate(0 86.11111111111111)"/><path d="M420 480c0 11.05-8.95 20-20 20s-20-8.95-20-20 8.95-20 20-20 20 8.95 20 20z" stroke="#5e5e5e" stroke-width="2" fill="#e5e5e5"/><path d="M400 422v18.5" stroke="#5e5e5e" stroke-width="2" fill="none"/><path d="M399.96 421l1.04-.03v1.06h-2v-1.15z" fill="#5e5e5e"/><path d="M400 455.76l-4.64-14.26h9.28z" stroke="#5e5e5e" stroke-width="2" fill="#5e5e5e"/><path d="M458 480h-18.5" stroke="#5e5e5e" stroke-width="2" fill="none"/><path d="M459 479.96l.03 1.04h-1.06v-2h1.15z" fill="#5e5e5e"/><path d="M424.24 480l14.26-4.64v9.28z" stroke="#5e5e5e" stroke-width="2" fill="#5e5e5e"/><path d="M420 560c0 11.05-8.95 20-20 20s-20-8.95-20-20 8.95-20 20-20 20 8.95 20 20zM500 640c0 11.05-8.95 20-20 20s-20-8.95-20-20 8.95-20 20-20 20 8.95 20 20z" stroke="#5e5e5e" stroke-width="2" fill="#e5e5e5"/><path d="M400.08 582l.04.23.08.4.12.4.15.4.18.43.2.42.27.45.32.46.37.48.47.52.56.57.7.62.88.68 1.15.77 1.5.9 2.07 1.07 3 1.3 4.77 1.75 9.52 2.8 36.7 9.46 3.72 1.36" stroke="#5e5e5e" stroke-width="2" fill="none"/><path d="M399.96 581l1.04-.03.03 1.03-2 .06-.03-1.18z" fill="#5e5e5e"/><path d="M477.56 616.87l-13.8-5.9 6.12-6.98z" stroke="#5e5e5e" stroke-width="2" fill="#5e5e5e"/><path d="M520 546c0-3.3 2.7-6 6-6h108c3.3 0 6 2.7 6 6v188c0 3.3-2.7 6-6 6H526c-3.3 0-6-2.7-6-6z" fill="none"/><path d="M520 740c5.52 0 10-4.48 10-10v-80c0-5.52 4.48-10 10-10-5.52 0-10-4.48-10-10v-80c0-5.52-4.48-10-10-10" stroke="#5e5e5e" stroke-width="2" fill="none"/><use xlink:href="#S" transform="matrix(1,0,0,1,555,545) translate(0 86.11111111111111)"/><use xlink:href="#R" transform="matrix(1,0,0,1,555,545) translate(0 112.7777777777778)"/><path d="M420 720c0 11.05-8.95 20-20 20s-20-8.95-20-20 8.95-20 20-20 20 8.95 20 20z" stroke="#5e5e5e" stroke-width="2" fill="#e5e5e5"/><path d="M400 582v98.5" stroke="#5e5e5e" stroke-width="2" fill="none"/><path d="M399.96 581l1.04-.03v1.06h-2v-1.15z" fill="#5e5e5e"/><path d="M400 695.76l-4.64-14.26h9.28z" stroke="#5e5e5e" stroke-width="2" fill="#5e5e5e"/><path d="M479.92 662l-.04.23-.08.4-.12.4-.15.4-.18.43-.2.42-.27.45-.32.46-.37.48-.47.52-.56.57-.7.62-.88.68-1.15.77-1.5.9-2.07 1.07-3 1.3-4.77 1.75-9.52 2.8-36.7 9.46-3.72 1.36" stroke="#5e5e5e" stroke-width="2" fill="none"/><path d="M479.96 661l1.04-.03-.03 1.1-2-.07.03-1.12z" fill="#5e5e5e"/><path d="M402.44 696.87l7.68-12.88 6.1 6.97z" stroke="#5e5e5e" stroke-width="2" fill="#5e5e5e"/><path d="M398.08 1124v77.5" stroke="#5e5e5e" stroke-width="2" fill="none"/><path d="M398.06 1123l1.02-.03v1.06h-2v-1.1z" fill="#5e5e5e"/><path d="M398.08 1216.76l-4.63-14.26h9.27z" stroke="#5e5e5e" stroke-width="2" fill="#5e5e5e"/><path d="M398.1 1304l1.8 373" stroke="#5e5e5e" stroke-width="2" fill="none"/><path d="M398.06 1303l1.02-.03v1.06h-2v-1.1z" fill="#5e5e5e"/><path d="M399.98 1692.25l-4.7-14.24 9.27-.03z" stroke="#5e5e5e" stroke-width="2" fill="#5e5e5e"/><path d="M420 800c0 11.05-8.95 20-20 20s-20-8.95-20-20 8.95-20 20-20 20 8.95 20 20zM500 820c0 11.05-8.95 20-20 20s-20-8.95-20-20 8.95-20 20-20 20 8.95 20 20z" stroke="#5e5e5e" stroke-width="2" fill="#e5e5e5"/><path d="M520 786c0-3.3 2.7-6 6-6h108c3.3 0 6 2.7 6 6v108c0 3.3-2.7 6-6 6H526c-3.3 0-6-2.7-6-6z" fill="none"/><path d="M520 900c5.52 0 10-4.48 10-10v-40c0-5.52 4.48-10 10-10-5.52 0-10-4.48-10-10v-40c0-5.52-4.48-10-10-10" stroke="#5e5e5e" stroke-width="2" fill="none"/><use xlink:href="#T" transform="matrix(1,0,0,1,555,785) translate(0 46.111111111111114)"/><use xlink:href="#U" transform="matrix(1,0,0,1,555,785) translate(0 72.77777777777777)"/><path d="M420 880c0 11.05-8.95 20-20 20s-20-8.95-20-20 8.95-20 20-20 20 8.95 20 20z" stroke="#5e5e5e" stroke-width="2" fill="#e5e5e5"/><path d="M400 822v18.5" stroke="#5e5e5e" stroke-width="2" fill="none"/><path d="M399.96 821l1.04-.03v1.06h-2v-1.15z" fill="#5e5e5e"/><path d="M400 855.76l-4.64-14.26h9.28z" stroke="#5e5e5e" stroke-width="2" fill="#5e5e5e"/><path d="M462.82 833.5l-10.1 8.1m-10.13 8.1l-10.13 8.1" stroke="#5e5e5e" stroke-width="2" fill="none"/><path d="M464.25 833.65l-.82.66-1.25-1.55.78-.63z" fill="#5e5e5e"/><path d="M420.55 867.34l8.24-12.54 5.78 7.24z" stroke="#5e5e5e" stroke-width="2" fill="#5e5e5e"/><path d="M120-174c0-3.3 2.7-6 6-6h148c3.3 0 6 2.7 6 6v68c0 3.3-2.7 6-6 6H126c-3.3 0-6-2.7-6-6z" stroke="#5e5e5e" stroke-width="3" fill="#ffeca9"/><g><use xlink:href="#V" transform="matrix(1,0,0,1,125,-175) translate(41.11111111111111 39.65277777777778)"/></g><path d="M240 1080c0 22.1-17.9 40-40 40s-40-17.9-40-40 17.9-40 40-40 40 17.9 40 40z" stroke="#5e5e5e" stroke-width="3" fill="#ffeca9"/><path d="M328.18 1104.22l17.98 14.34 9.8 7.14 6.52 4.35 4.73 2.87 3.6 1.98 2.84 1.4 2.3 1.03 1.9.76 1.6.55 1.37.4 1.2.32 1.03.22.9.14.83.1.73.07.65.03h.6l.55-.02.5-.03.48-.06.44-.06.4-.1.4-.1.36-.1.34-.12.33-.13.3-.15.32-.15.3-.16.27-.17.28-.18.26-.2.26-.22.26-.22.25-.23.25-.26.25-.27.25-.3.24-.32.24-.35.24-.38.24-.42.24-.46.24-.5.24-.57.24-.64.23-.7.23-.82.2-.93.22-1.06.18-1.24.15-1.46.1-1.74.03-1.12 2 .04-.02 1.16-.12 1.83-.16 1.55-.2 1.33-.2 1.15-.25 1-.24.9-.25.8-.26.7-.27.65-.27.58-.28.54-.3.5-.27.44-.3.4-.3.4-.28.36-.3.34-.32.3-.3.3-.33.3-.33.25-.34.23-.35.23-.34.2-.37.2-.38.2-.4.17-.4.17-.43.14-.45.14-.47.12-.5.1-.5.1-.56.06-.6.05-.63.03h-.7l-.74-.03-.8-.07-.9-.1-1-.18-1.12-.24-1.27-.3-1.45-.45-1.68-.6-1.98-.77-2.37-1.06-2.92-1.45-3.68-2.02-4.8-2.92-6.58-4.4-9.87-7.18-18.04-14.38-16.86-14.14h3.12zm-116.2-84.65l.74.03.82.07.9.1 1 .18 1.1.24 1.27.3 1.46.45 1.68.6 1.98.77 2.37 1.06 2.9 1.45 3.68 2.02 4.8 2.92 6.6 4.4 9.86 7.2 34.55 28.93h-3.13l-32.66-27.36-9.78-7.14-6.52-4.35-4.72-2.86-3.6-2-2.84-1.4-2.3-1.03-1.9-.76-1.6-.55-1.37-.4-1.18-.32-1.05-.22-.9-.14-.82-.1-.73-.07-.67-.03h-.6l-.55.02-.5.03-.48.06-.43.06-.4.1-.4.1-.36.1-.34.12-.33.13-.3.15-.3.15-.32.17-.96-1.75.35-.2.37-.18.4-.17.4-.16.42-.14.43-.14.47-.12.5-.1.5-.1.57-.06.6-.05.62-.03z" fill="#5e5e5e"/><path d="M398.06 1123l1.02-.03-.02 1.08-2-.04.02-1.06zM210.4 1023.68l-9.28 11.78.6-15z" fill="#5e5e5e"/><path d="M212.04 1023.22L200 1038.5l.76-19.44zm-9.8 9.2l6.53-8.27-6.12-2.26z" fill="#5e5e5e"/><g><use xlink:href="#W" transform="matrix(1,0,0,1,269.75281923214015,1070.2986082921072) translate(0 14.222222222222223)"/></g><path d="M238.08 1261.5c0 22.1-17.9 40-40 40s-40-17.9-40-40 17.9-40 40-40 40 17.9 40 40z" stroke="#5e5e5e" stroke-width="3" fill="#ffeca9"/><path d="M200 1122.5l.28 79.12" stroke="#5e5e5e" stroke-width="2" fill="none"/><path d="M199.98 1121.5l1.02-.03v1.05h-2v-1.08z" fill="#5e5e5e"/><path d="M200.05 1216.88l-4.42-14.33 9.27.14z" stroke="#5e5e5e" stroke-width="2" fill="#5e5e5e"/><path d="M355.58 1261.5h-97.5" stroke="#5e5e5e" stroke-width="2" fill="none"/><path d="M356.58 1261.48l.04 1.02h-1.07v-2h1.1z" fill="#5e5e5e"/><path d="M242.82 1261.5l14.27-4.63v9.27z" stroke="#5e5e5e" stroke-width="2" fill="#5e5e5e"/><path d="M240 1737c0 22.08-17.9 40-40 40s-40-17.92-40-40c0-22.1 17.9-40 40-40s40 17.9 40 40z" stroke="#5e5e5e" stroke-width="3" fill="#ffeca9"/><path d="M198.08 1304v373.06" stroke="#5e5e5e" stroke-width="2" fill="none"/><path d="M198.06 1303l1.02-.03v1.06h-2v-1.1z" fill="#5e5e5e"/><path d="M198.08 1692.32l-4.63-14.26h9.27z" stroke="#5e5e5e" stroke-width="2" fill="#5e5e5e"/><path d="M357.5 1737H260" stroke="#5e5e5e" stroke-width="2" fill="none"/><path d="M358.5 1736.97l.03 1.02h-1.06v-2h1.1z" fill="#5e5e5e"/><path d="M244.74 1737l14.26-4.64v9.27z" stroke="#5e5e5e" stroke-width="2" fill="#5e5e5e"/><path d="M238.08 1980c0 22.1-17.9 40-40 40s-40-17.9-40-40 17.9-40 40-40 40 17.9 40 40z" stroke="#5e5e5e" stroke-width="3" fill="#ffeca9"/><path d="M200 1779.5l.92 140.64" stroke="#5e5e5e" stroke-width="2" fill="none"/><path d="M199.98 1778.5l1.02-.04v1.05l-2 .03v-1.1z" fill="#5e5e5e"/><path d="M200.16 1935.38l-3.92-14.47 9.26.47z" stroke="#5e5e5e" stroke-width="2" fill="#5e5e5e"/><path d="M399.98 2022.5l-.02 1.16-.12 1.8-.16 1.53-.2 1.3-.2 1.12-.23 1-.25.86-.25.77-.25.7-.26.6-.27.57-.26.5-.26.48-.27.42-.28.4-.3.36-.27.34-.28.32-.3.3-.28.27-.3.27-.3.24-.32.24-.32.2-.33.2-.34.2-.36.17-.37.18-.38.15-.4.14-.42.13-.45.1-.47.1-.5.1-.53.06-.58.05-.63.04h-.68l-.75-.03-.82-.06-.9-.12-1-.17-1.15-.24-1.3-.33-1.5-.45-1.76-.6-2.1-.84-2.5-1.13-3.12-1.54-3.96-2.18-5.24-3.18-7.33-4.88-11.3-8.25-23.42-18.7-64.23-52.9-11.3-8.26-7.34-4.88-5.24-3.18-3.96-2.2-3.1-1.53-2.53-1.13-2.08-.83-1.76-.62-1.5-.45-1.3-.34-1.14-.25-1-.17-.9-.12-.83-.07-.74-.04h-.7l-.6.03-.6.04-.52.06-.5.1-.48.1-.44.1-.43.13-.4.14-.38.15-.37.17-.35.16-.35.2-.33.2" stroke="#5e5e5e" stroke-width="2" fill="none"/><path d="M399.98 2021.5l1.02-.03-.02 1.08-2-.04.02-1.06z" fill="#5e5e5e"/><path d="M199.17 1935.45l.4-15 8.75 3.1z" stroke="#5e5e5e" stroke-width="2" fill="#5e5e5e"/><defs><path fill="#333" d="M121-226c-27-7-43 5-38 36h38v33H83V0H34v-157H6v-33h28c-9-59 32-81 87-68v32" id="X"/><path fill="#333" d="M185-48c-13 30-37 53-82 52C43 2 14-33 14-96s30-98 90-98c62 0 83 45 84 108H66c0 31 8 55 39 56 18 0 30-7 34-22zm-45-69c5-46-57-63-70-21-2 6-4 13-4 21h74" id="Y"/><path fill="#333" d="M133-34C117-15 103 5 69 4 32 3 11-16 11-54c-1-60 55-63 116-61 1-26-3-47-28-47-18 1-26 9-28 27l-52-2c7-38 36-58 82-57s74 22 75 68l1 82c-1 14 12 18 25 15v27c-30 8-71 5-69-32zm-48 3c29 0 43-24 42-57-32 0-66-3-65 30 0 17 8 27 23 27" id="Z"/><path fill="#333" d="M115-3C79 11 28 4 28-45v-112H4v-33h27l15-45h31v45h36v33H77v99c-1 23 16 31 38 25v30" id="aa"/><path fill="#333" d="M85 4C-2 5 27-109 22-190h50c7 57-23 150 33 157 60-5 35-97 40-157h50l1 190h-47c-2-12 1-28-3-38-12 25-28 42-61 42" id="ab"/><path fill="#333" d="M135-150c-39-12-60 13-60 57V0H25l-1-190h47c2 13-1 29 3 40 6-28 27-53 61-41v41" id="ac"/><g id="a"><use transform="matrix(0.04938271604938272,0,0,0.04938271604938272,0,0)" xlink:href="#X"/><use transform="matrix(0.04938271604938272,0,0,0.04938271604938272,5.8765432098765435,0)" xlink:href="#Y"/><use transform="matrix(0.04938271604938272,0,0,0.04938271604938272,15.753086419753087,0)" xlink:href="#Z"/><use transform="matrix(0.04938271604938272,0,0,0.04938271604938272,25.629629629629633,0)" xlink:href="#aa"/><use transform="matrix(0.04938271604938272,0,0,0.04938271604938272,31.506172839506174,0)" xlink:href="#ab"/><use transform="matrix(0.04938271604938272,0,0,0.04938271604938272,42.320987654320994,0)" xlink:href="#ac"/><use transform="matrix(0.04938271604938272,0,0,0.04938271604938272,49.23456790123458,0)" xlink:href="#Y"/></g><path fill="#333" d="M199 0l-22-63H83L61 0H9l90-248h61L250 0h-51zm-33-102l-36-108c-10 38-24 72-36 108h72" id="ad"/><use transform="matrix(0.04938271604938272,0,0,0.04938271604938272,0,0)" xlink:href="#ad" id="b"/><path fill="#333" d="M182-130c37 4 62 22 62 59C244 23 116-4 24 0v-248c84 5 203-23 205 63 0 31-19 50-47 55zM76-148c40-3 101 13 101-30 0-44-60-28-101-31v61zm0 110c48-3 116 14 116-37 0-48-69-32-116-35v72" id="ae"/><use transform="matrix(0.04938271604938272,0,0,0.04938271604938272,0,0)" xlink:href="#ae" id="c"/><path fill="#333" d="M190-63c-7 42-38 67-86 67-59 0-84-38-90-98-12-110 154-137 174-36l-49 2c-2-19-15-32-35-32-30 0-35 28-38 64-6 74 65 87 74 30" id="af"/><g id="d"><use transform="matrix(0.04938271604938272,0,0,0.04938271604938272,0,0)" xlink:href="#ac"/><use transform="matrix(0.04938271604938272,0,0,0.04938271604938272,6.913580246913581,0)" xlink:href="#af"/></g><path fill="#333" d="M101-251c68 0 84 54 84 127C185-50 166 4 99 4S15-52 14-124c-1-75 17-127 87-127zm-1 216c37-5 36-46 36-89s4-89-36-89c-39 0-36 45-36 89 0 43-3 85 36 89" id="ag"/><path fill="#333" d="M24 0v-54h51V0H24" id="ah"/><path fill="#333" d="M23 0v-37h61v-169l-59 37v-38l62-41h46v211h57V0H23" id="ai"/><g id="e"><use transform="matrix(0.04938271604938272,0,0,0.04938271604938272,0,0)" xlink:href="#ag"/><use transform="matrix(0.04938271604938272,0,0,0.04938271604938272,9.876543209876544,0)" xlink:href="#ah"/><use transform="matrix(0.04938271604938272,0,0,0.04938271604938272,14.814814814814817,0)" xlink:href="#ai"/></g><path fill="#333" d="M108 0H70L1-190h34L89-25l56-165h34" id="aj"/><path fill="#333" d="M101-251c68 0 85 55 85 127S166 4 100 4C33 4 14-52 14-124c0-73 17-127 87-127zm-1 229c47 0 54-49 54-102s-4-102-53-102c-51 0-55 48-55 102 0 53 5 102 54 102" id="ak"/><path fill="#333" d="M33 0v-38h34V0H33" id="al"/><path fill="#333" d="M27 0v-27h64v-190l-56 39v-29l58-41h29v221h61V0H27" id="am"/><g id="f"><use transform="matrix(0.06172839506172839,0,0,0.06172839506172839,0,0)" xlink:href="#aj"/><use transform="matrix(0.06172839506172839,0,0,0.06172839506172839,11.11111111111111,0)" xlink:href="#ak"/><use transform="matrix(0.06172839506172839,0,0,0.06172839506172839,23.45679012345679,0)" xlink:href="#al"/><use transform="matrix(0.06172839506172839,0,0,0.06172839506172839,29.62962962962963,0)" xlink:href="#am"/></g><path fill="#333" d="M25 0v-261h50V0H25" id="an"/><path fill="#333" d="M137-138c1-29-70-34-71-4 15 46 118 7 119 86 1 83-164 76-172 9l43-7c4 19 20 25 44 25 33 8 57-30 24-41C81-84 22-81 20-136c-2-80 154-74 161-7" id="ao"/><g id="g"><use transform="matrix(0.04938271604938272,0,0,0.04938271604938272,0,0)" xlink:href="#ac"/><use transform="matrix(0.04938271604938272,0,0,0.04938271604938272,6.913580246913581,0)" xlink:href="#Y"/><use transform="matrix(0.04938271604938272,0,0,0.04938271604938272,16.790123456790127,0)" xlink:href="#an"/><use transform="matrix(0.04938271604938272,0,0,0.04938271604938272,21.7283950617284,0)" xlink:href="#Y"/><use transform="matrix(0.04938271604938272,0,0,0.04938271604938272,31.60493827160494,0)" xlink:href="#Z"/><use transform="matrix(0.04938271604938272,0,0,0.04938271604938272,41.48148148148149,0)" xlink:href="#ao"/><use transform="matrix(0.04938271604938272,0,0,0.04938271604938272,51.35802469135803,0)" xlink:href="#Y"/></g><path fill="#333" d="M67-125c0 53 21 87 73 88 37 1 54-22 65-47l45 17C233-25 199 4 140 4 58 4 20-42 15-125 8-235 124-281 211-232c18 10 29 29 36 50l-46 12c-8-25-30-41-62-41-52 0-71 34-72 86" id="ap"/><use transform="matrix(0.04938271604938272,0,0,0.04938271604938272,0,0)" xlink:href="#ap" id="h"/><path fill="#333" d="M114-157C55-157 80-60 75 0H25v-261h50l-1 109c12-26 28-41 61-42 86-1 58 113 63 194h-50c-7-57 23-157-34-157" id="aq"/><path fill="#333" d="M110-194c64 0 96 36 96 99 0 64-35 99-97 99-61 0-95-36-95-99 0-62 34-99 96-99zm-1 164c35 0 45-28 45-65 0-40-10-65-43-65-34 0-45 26-45 65 0 36 10 65 43 65" id="ar"/><path fill="#333" d="M25-224v-37h50v37H25zM25 0v-190h50V0H25" id="as"/><path fill="#333" d="M144 0l-44-69L55 0H2l70-98-66-92h53l41 62 40-62h54l-67 91 71 99h-54" id="at"/><g id="i"><use transform="matrix(0.04938271604938272,0,0,0.04938271604938272,0,0)" xlink:href="#aq"/><use transform="matrix(0.04938271604938272,0,0,0.04938271604938272,10.814814814814815,0)" xlink:href="#ar"/><use transform="matrix(0.04938271604938272,0,0,0.04938271604938272,21.62962962962963,0)" xlink:href="#aa"/><use transform="matrix(0.04938271604938272,0,0,0.04938271604938272,27.506172839506174,0)" xlink:href="#X"/><use transform="matrix(0.04938271604938272,0,0,0.04938271604938272,33.382716049382715,0)" xlink:href="#as"/><use transform="matrix(0.04938271604938272,0,0,0.04938271604938272,38.32098765432099,0)" xlink:href="#at"/></g><use transform="matrix(0.04938271604938272,0,0,0.04938271604938272,0,0)" xlink:href="#ai" id="j"/><g id="k"><use transform="matrix(0.06172839506172839,0,0,0.06172839506172839,0,0)" xlink:href="#aj"/><use transform="matrix(0.06172839506172839,0,0,0.06172839506172839,11.11111111111111,0)" xlink:href="#ak"/><use transform="matrix(0.06172839506172839,0,0,0.06172839506172839,23.45679012345679,0)" xlink:href="#al"/><use transform="matrix(0.06172839506172839,0,0,0.06172839506172839,29.62962962962963,0)" xlink:href="#am"/><use transform="matrix(0.06172839506172839,0,0,0.06172839506172839,41.97530864197531,0)" xlink:href="#al"/><use transform="matrix(0.06172839506172839,0,0,0.06172839506172839,48.14814814814815,0)" xlink:href="#am"/></g><path fill="#333" d="M135-194c87-1 58 113 63 194h-50c-7-57 23-157-34-157-59 0-34 97-39 157H25l-1-190h47c2 12-1 28 3 38 12-26 28-41 61-42" id="au"/><path fill="#333" d="M88-194c31-1 46 15 58 34l-1-101h50l1 261h-48c-2-10 0-23-3-31C134-8 116 4 84 4 32 4 16-41 15-95c0-56 19-97 73-99zm17 164c33 0 40-30 41-66 1-37-9-64-41-64s-38 30-39 65c0 43 13 65 39 65" id="av"/><g id="l"><use transform="matrix(0.04938271604938272,0,0,0.04938271604938272,0,0)" xlink:href="#as"/><use transform="matrix(0.04938271604938272,0,0,0.04938271604938272,4.938271604938272,0)" xlink:href="#au"/><use transform="matrix(0.04938271604938272,0,0,0.04938271604938272,15.753086419753087,0)" xlink:href="#af"/><use transform="matrix(0.04938271604938272,0,0,0.04938271604938272,25.629629629629633,0)" xlink:href="#an"/><use transform="matrix(0.04938271604938272,0,0,0.04938271604938272,30.567901234567906,0)" xlink:href="#ab"/><use transform="matrix(0.04938271604938272,0,0,0.04938271604938272,41.38271604938272,0)" xlink:href="#av"/><use transform="matrix(0.04938271604938272,0,0,0.04938271604938272,52.19753086419754,0)" xlink:href="#Y"/></g><g id="m"><use transform="matrix(0.04938271604938272,0,0,0.04938271604938272,0,0)" xlink:href="#aq"/><use transform="matrix(0.04938271604938272,0,0,0.04938271604938272,10.814814814814815,0)" xlink:href="#ar"/><use transform="matrix(0.04938271604938272,0,0,0.04938271604938272,21.62962962962963,0)" xlink:href="#aa"/><use transform="matrix(0.04938271604938272,0,0,0.04938271604938272,27.506172839506174,0)" xlink:href="#X"/><use transform="matrix(0.04938271604938272,0,0,0.04938271604938272,33.382716049382715,0)" xlink:href="#as"/><use transform="matrix(0.04938271604938272,0,0,0.04938271604938272,38.32098765432099,0)" xlink:href="#at"/></g><use transform="matrix(0.04938271604938272,0,0,0.04938271604938272,0,0)" xlink:href="#ai" id="n"/><path fill="#333" d="M182-182c0 78-84 86-111 141h115V0H12c-6-101 99-100 120-180 1-22-12-31-33-32-23 0-32 14-35 34l-49-3c5-45 32-70 84-70 51 0 83 22 83 69" id="aw"/><use transform="matrix(0.04938271604938272,0,0,0.04938271604938272,0,0)" xlink:href="#aw" id="o"/><path fill="#333" d="M24-248c120-7 223 5 221 122C244-46 201 0 124 0H24v-248zM76-40c74 7 117-18 117-86 0-67-45-88-117-82v168" id="ax"/><use transform="matrix(0.04938271604938272,0,0,0.04938271604938272,0,0)" xlink:href="#ax" id="p"/><g id="q"><use transform="matrix(0.04938271604938272,0,0,0.04938271604938272,0,0)" xlink:href="#ag"/><use transform="matrix(0.04938271604938272,0,0,0.04938271604938272,9.876543209876544,0)" xlink:href="#ah"/><use transform="matrix(0.04938271604938272,0,0,0.04938271604938272,14.814814814814817,0)" xlink:href="#aw"/></g><path fill="#333" d="M101-251c82-7 93 87 43 132L82-64C71-53 59-42 53-27h129V0H18c2-99 128-94 128-182 0-28-16-43-45-43s-46 15-49 41l-32-3c6-41 34-60 81-64" id="ay"/><g id="r"><use transform="matrix(0.06172839506172839,0,0,0.06172839506172839,0,0)" xlink:href="#aj"/><use transform="matrix(0.06172839506172839,0,0,0.06172839506172839,11.11111111111111,0)" xlink:href="#ak"/><use transform="matrix(0.06172839506172839,0,0,0.06172839506172839,23.45679012345679,0)" xlink:href="#al"/><use transform="matrix(0.06172839506172839,0,0,0.06172839506172839,29.62962962962963,0)" xlink:href="#am"/><use transform="matrix(0.06172839506172839,0,0,0.06172839506172839,41.97530864197531,0)" xlink:href="#al"/><use transform="matrix(0.06172839506172839,0,0,0.06172839506172839,48.14814814814815,0)" xlink:href="#ay"/></g><path fill="#333" d="M24 0v-248h195v40H76v63h132v40H76v65h150V0H24" id="az"/><use transform="matrix(0.04938271604938272,0,0,0.04938271604938272,0,0)" xlink:href="#az" id="s"/><g id="t"><use transform="matrix(0.06172839506172839,0,0,0.06172839506172839,0,0)" xlink:href="#aj"/><use transform="matrix(0.06172839506172839,0,0,0.06172839506172839,11.11111111111111,0)" xlink:href="#ak"/><use transform="matrix(0.06172839506172839,0,0,0.06172839506172839,23.45679012345679,0)" xlink:href="#al"/><use transform="matrix(0.06172839506172839,0,0,0.06172839506172839,29.62962962962963,0)" xlink:href="#ay"/></g><path fill="#333" d="M114-163C36-179 61-72 57 0H25l-1-190h30c1 12-1 29 2 39 6-27 23-49 58-41v29" id="aA"/><path fill="#333" d="M100-194c63 0 86 42 84 106H49c0 40 14 67 53 68 26 1 43-12 49-29l28 8c-11 28-37 45-77 45C44 4 14-33 15-96c1-61 26-98 85-98zm52 81c6-60-76-77-97-28-3 7-6 17-6 28h103" id="aB"/><path fill="#333" d="M24 0v-261h32V0H24" id="aC"/><path fill="#333" d="M141-36C126-15 110 5 73 4 37 3 15-17 15-53c-1-64 63-63 125-63 3-35-9-54-41-54-24 1-41 7-42 31l-33-3c5-37 33-52 76-52 45 0 72 20 72 64v82c-1 20 7 32 28 27v20c-31 9-61-2-59-35zM48-53c0 20 12 33 32 33 41-3 63-29 60-74-43 2-92-5-92 41" id="aD"/><path fill="#333" d="M135-143c-3-34-86-38-87 0 15 53 115 12 119 90S17 21 10-45l28-5c4 36 97 45 98 0-10-56-113-15-118-90-4-57 82-63 122-42 12 7 21 19 24 35" id="aE"/><g id="u"><use transform="matrix(0.06172839506172839,0,0,0.06172839506172839,0,0)" xlink:href="#aA"/><use transform="matrix(0.06172839506172839,0,0,0.06172839506172839,7.345679012345679,0)" xlink:href="#aB"/><use transform="matrix(0.06172839506172839,0,0,0.06172839506172839,19.691358024691358,0)" xlink:href="#aC"/><use transform="matrix(0.06172839506172839,0,0,0.06172839506172839,24.5679012345679,0)" xlink:href="#aB"/><use transform="matrix(0.06172839506172839,0,0,0.06172839506172839,36.913580246913575,0)" xlink:href="#aD"/><use transform="matrix(0.06172839506172839,0,0,0.06172839506172839,49.25925925925925,0)" xlink:href="#aE"/><use transform="matrix(0.06172839506172839,0,0,0.06172839506172839,60.37037037037037,0)" xlink:href="#aB"/></g><path fill="#333" d="M106-169C34-169 62-67 57 0H25v-261h32l-1 103c12-21 28-36 61-36 89 0 53 116 60 194h-32v-121c2-32-8-49-39-48" id="aF"/><path fill="#333" d="M100-194c62-1 85 37 85 99 1 63-27 99-86 99S16-35 15-95c0-66 28-99 85-99zM99-20c44 1 53-31 53-75 0-43-8-75-51-75s-53 32-53 75 10 74 51 75" id="aG"/><path fill="#333" d="M59-47c-2 24 18 29 38 22v24C64 9 27 4 27-40v-127H5v-23h24l9-43h21v43h35v23H59v120" id="aH"/><path fill="#333" d="M101-234c-31-9-42 10-38 44h38v23H63V0H32v-167H5v-23h27c-7-52 17-82 69-68v24" id="aI"/><path fill="#333" d="M24-231v-30h32v30H24zM24 0v-190h32V0H24" id="aJ"/><path fill="#333" d="M141 0L90-78 38 0H4l68-98-65-92h35l48 74 47-74h35l-64 92 68 98h-35" id="aK"/><g id="v"><use transform="matrix(0.06172839506172839,0,0,0.06172839506172839,0,0)" xlink:href="#aF"/><use transform="matrix(0.06172839506172839,0,0,0.06172839506172839,12.345679012345679,0)" xlink:href="#aG"/><use transform="matrix(0.06172839506172839,0,0,0.06172839506172839,24.691358024691358,0)" xlink:href="#aH"/><use transform="matrix(0.06172839506172839,0,0,0.06172839506172839,30.864197530864196,0)" xlink:href="#aI"/><use transform="matrix(0.06172839506172839,0,0,0.06172839506172839,37.03703703703704,0)" xlink:href="#aJ"/><use transform="matrix(0.06172839506172839,0,0,0.06172839506172839,41.91358024691358,0)" xlink:href="#aK"/></g><path fill="#333" d="M0 4l72-265h28L28 4H0" id="aL"/><use transform="matrix(0.06172839506172839,0,0,0.06172839506172839,0,0)" xlink:href="#aL" id="w"/><path fill="#333" d="M210-169c-67 3-38 105-44 169h-31v-121c0-29-5-50-35-48C34-165 62-65 56 0H25l-1-190h30c1 10-1 24 2 32 10-44 99-50 107 0 11-21 27-35 58-36 85-2 47 119 55 194h-31v-121c0-29-5-49-35-48" id="aM"/><path fill="#333" d="M117-194c89-4 53 116 60 194h-32v-121c0-31-8-49-39-48C34-167 62-67 57 0H25l-1-190h30c1 10-1 24 2 32 11-22 29-35 61-36" id="aN"/><path fill="#333" d="M96-169c-40 0-48 33-48 73s9 75 48 75c24 0 41-14 43-38l32 2c-6 37-31 61-74 61-59 0-76-41-82-99-10-93 101-131 147-64 4 7 5 14 7 22l-32 3c-4-21-16-35-41-35" id="aO"/><g id="x"><use transform="matrix(0.06172839506172839,0,0,0.06172839506172839,0,0)" xlink:href="#aM"/><use transform="matrix(0.06172839506172839,0,0,0.06172839506172839,18.456790123456788,0)" xlink:href="#aD"/><use transform="matrix(0.06172839506172839,0,0,0.06172839506172839,30.80246913580247,0)" xlink:href="#aJ"/><use transform="matrix(0.06172839506172839,0,0,0.06172839506172839,35.67901234567901,0)" xlink:href="#aN"/><use transform="matrix(0.06172839506172839,0,0,0.06172839506172839,48.02469135802469,0)" xlink:href="#aH"/><use transform="matrix(0.06172839506172839,0,0,0.06172839506172839,54.19753086419753,0)" xlink:href="#aB"/><use transform="matrix(0.06172839506172839,0,0,0.06172839506172839,66.54320987654322,0)" xlink:href="#aN"/><use transform="matrix(0.06172839506172839,0,0,0.06172839506172839,78.8888888888889,0)" xlink:href="#aD"/><use transform="matrix(0.06172839506172839,0,0,0.06172839506172839,91.23456790123458,0)" xlink:href="#aN"/><use transform="matrix(0.06172839506172839,0,0,0.06172839506172839,103.58024691358027,0)" xlink:href="#aO"/><use transform="matrix(0.06172839506172839,0,0,0.06172839506172839,114.69135802469138,0)" xlink:href="#aB"/></g><g id="y"><use transform="matrix(0.06172839506172839,0,0,0.06172839506172839,0,0)" xlink:href="#aA"/><use transform="matrix(0.06172839506172839,0,0,0.06172839506172839,7.345679012345679,0)" xlink:href="#aB"/><use transform="matrix(0.06172839506172839,0,0,0.06172839506172839,19.691358024691358,0)" xlink:href="#aC"/><use transform="matrix(0.06172839506172839,0,0,0.06172839506172839,24.5679012345679,0)" xlink:href="#aB"/><use transform="matrix(0.06172839506172839,0,0,0.06172839506172839,36.913580246913575,0)" xlink:href="#aD"/><use transform="matrix(0.06172839506172839,0,0,0.06172839506172839,49.25925925925925,0)" xlink:href="#aE"/><use transform="matrix(0.06172839506172839,0,0,0.06172839506172839,60.37037037037037,0)" xlink:href="#aB"/></g><path fill="#333" d="M85-194c31 0 48 13 60 33l-1-100h32l1 261h-30c-2-10 0-23-3-31C134-8 116 4 85 4 32 4 16-35 15-94c0-66 23-100 70-100zm9 24c-40 0-46 34-46 75 0 40 6 74 45 74 42 0 51-32 51-76 0-42-9-74-50-73" id="aP"/><g id="z"><use transform="matrix(0.06172839506172839,0,0,0.06172839506172839,0,0)" xlink:href="#aO"/><use transform="matrix(0.06172839506172839,0,0,0.06172839506172839,11.11111111111111,0)" xlink:href="#aD"/><use transform="matrix(0.06172839506172839,0,0,0.06172839506172839,23.45679012345679,0)" xlink:href="#aN"/><use transform="matrix(0.06172839506172839,0,0,0.06172839506172839,35.80246913580247,0)" xlink:href="#aP"/><use transform="matrix(0.06172839506172839,0,0,0.06172839506172839,48.148148148148145,0)" xlink:href="#aJ"/><use transform="matrix(0.06172839506172839,0,0,0.06172839506172839,53.02469135802469,0)" xlink:href="#aP"/><use transform="matrix(0.06172839506172839,0,0,0.06172839506172839,65.37037037037037,0)" xlink:href="#aD"/><use transform="matrix(0.06172839506172839,0,0,0.06172839506172839,77.71604938271605,0)" xlink:href="#aH"/><use transform="matrix(0.06172839506172839,0,0,0.06172839506172839,83.88888888888889,0)" xlink:href="#aB"/></g><use transform="matrix(0.06172839506172839,0,0,0.06172839506172839,0,0)" xlink:href="#aL" id="A"/><path fill="#333" d="M115-194c53 0 69 39 70 98 0 66-23 100-70 100C84 3 66-7 56-30L54 0H23l1-261h32v101c10-23 28-34 59-34zm-8 174c40 0 45-34 45-75 0-40-5-75-45-74-42 0-51 32-51 76 0 43 10 73 51 73" id="aQ"/><path fill="#333" d="M84 4C-5 8 30-112 23-190h32v120c0 31 7 50 39 49 72-2 45-101 50-169h31l1 190h-30c-1-10 1-25-2-33-11 22-28 36-60 37" id="aR"/><path fill="#333" d="M177-190C167-65 218 103 67 71c-23-6-38-20-44-43l32-5c15 47 100 32 89-28v-30C133-14 115 1 83 1 29 1 15-40 15-95c0-56 16-97 71-98 29-1 48 16 59 35 1-10 0-23 2-32h30zM94-22c36 0 50-32 50-73 0-42-14-75-50-75-39 0-46 34-46 75s6 73 46 73" id="aS"/><g id="B"><use transform="matrix(0.06172839506172839,0,0,0.06172839506172839,0,0)" xlink:href="#aQ"/><use transform="matrix(0.06172839506172839,0,0,0.06172839506172839,12.345679012345679,0)" xlink:href="#aR"/><use transform="matrix(0.06172839506172839,0,0,0.06172839506172839,24.691358024691358,0)" xlink:href="#aS"/><use transform="matrix(0.06172839506172839,0,0,0.06172839506172839,37.03703703703704,0)" xlink:href="#aI"/><use transform="matrix(0.06172839506172839,0,0,0.06172839506172839,43.20987654320988,0)" xlink:href="#aJ"/><use transform="matrix(0.06172839506172839,0,0,0.06172839506172839,48.086419753086425,0)" xlink:href="#aK"/></g><path fill="#333" d="M115-194c55 1 70 41 70 98S169 2 115 4C84 4 66-9 55-30l1 105H24l-1-265h31l2 30c10-21 28-34 59-34zm-8 174c40 0 45-34 45-75s-6-73-45-74c-42 0-51 32-51 76 0 43 10 73 51 73" id="aT"/><g id="C"><use transform="matrix(0.06172839506172839,0,0,0.06172839506172839,0,0)" xlink:href="#aP"/><use transform="matrix(0.06172839506172839,0,0,0.06172839506172839,12.345679012345679,0)" xlink:href="#aB"/><use transform="matrix(0.06172839506172839,0,0,0.06172839506172839,24.691358024691358,0)" xlink:href="#aj"/><use transform="matrix(0.06172839506172839,0,0,0.06172839506172839,35.80246913580247,0)" xlink:href="#aB"/><use transform="matrix(0.06172839506172839,0,0,0.06172839506172839,48.148148148148145,0)" xlink:href="#aC"/><use transform="matrix(0.06172839506172839,0,0,0.06172839506172839,53.02469135802469,0)" xlink:href="#aG"/><use transform="matrix(0.06172839506172839,0,0,0.06172839506172839,65.37037037037037,0)" xlink:href="#aT"/></g><g id="D"><use transform="matrix(0.06172839506172839,0,0,0.06172839506172839,0,0)" xlink:href="#aI"/><use transform="matrix(0.06172839506172839,0,0,0.06172839506172839,6.172839506172839,0)" xlink:href="#aB"/><use transform="matrix(0.06172839506172839,0,0,0.06172839506172839,18.51851851851852,0)" xlink:href="#aD"/><use transform="matrix(0.06172839506172839,0,0,0.06172839506172839,30.864197530864196,0)" xlink:href="#aH"/><use transform="matrix(0.06172839506172839,0,0,0.06172839506172839,37.03703703703704,0)" xlink:href="#aR"/><use transform="matrix(0.06172839506172839,0,0,0.06172839506172839,49.382716049382715,0)" xlink:href="#aA"/><use transform="matrix(0.06172839506172839,0,0,0.06172839506172839,56.72839506172839,0)" xlink:href="#aB"/></g><g id="E"><use transform="matrix(0.049382716049382706,0,0,0.049382716049382706,0,0)" xlink:href="#as"/><use transform="matrix(0.049382716049382706,0,0,0.049382716049382706,4.93827160493827,0)" xlink:href="#au"/><use transform="matrix(0.049382716049382706,0,0,0.049382716049382706,15.753086419753084,0)" xlink:href="#af"/><use transform="matrix(0.049382716049382706,0,0,0.049382716049382706,25.629629629629626,0)" xlink:href="#an"/><use transform="matrix(0.049382716049382706,0,0,0.049382716049382706,30.567901234567902,0)" xlink:href="#ab"/><use transform="matrix(0.049382716049382706,0,0,0.049382716049382706,41.38271604938271,0)" xlink:href="#av"/><use transform="matrix(0.049382716049382706,0,0,0.049382716049382706,52.19753086419752,0)" xlink:href="#Y"/></g><g id="F"><use transform="matrix(0.049382716049382706,0,0,0.049382716049382706,0,0)" xlink:href="#aq"/><use transform="matrix(0.049382716049382706,0,0,0.049382716049382706,10.814814814814813,0)" xlink:href="#ar"/><use transform="matrix(0.049382716049382706,0,0,0.049382716049382706,21.629629629629626,0)" xlink:href="#aa"/><use transform="matrix(0.049382716049382706,0,0,0.049382716049382706,27.506172839506167,0)" xlink:href="#X"/><use transform="matrix(0.049382716049382706,0,0,0.049382716049382706,33.38271604938271,0)" xlink:href="#as"/><use transform="matrix(0.049382716049382706,0,0,0.049382716049382706,38.32098765432098,0)" xlink:href="#at"/></g><use transform="matrix(0.049382716049382706,0,0,0.049382716049382706,0,0)" xlink:href="#aw" id="G"/><path fill="#333" d="M135-194c52 0 70 43 70 98 0 56-19 99-73 100-30 1-46-15-58-35L72 0H24l1-261h50v104c11-23 29-37 60-37zM114-30c31 0 40-27 40-66 0-37-7-63-39-63s-41 28-41 65c0 36 8 64 40 64" id="aU"/><path fill="#333" d="M195-6C206 82 75 100 31 46c-4-6-6-13-8-21l49-6c3 16 16 24 34 25 40 0 42-37 40-79-11 22-30 35-61 35-53 0-70-43-70-97 0-56 18-96 73-97 30 0 46 14 59 34l2-30h47zm-90-29c32 0 41-27 41-63 0-35-9-62-40-62-32 0-39 29-40 63 0 36 9 62 39 62" id="aV"/><g id="H"><use transform="matrix(0.04938271604938272,0,0,0.04938271604938272,0,0)" xlink:href="#aU"/><use transform="matrix(0.04938271604938272,0,0,0.04938271604938272,10.814814814814815,0)" xlink:href="#ab"/><use transform="matrix(0.04938271604938272,0,0,0.04938271604938272,21.62962962962963,0)" xlink:href="#aV"/><use transform="matrix(0.04938271604938272,0,0,0.04938271604938272,32.44444444444444,0)" xlink:href="#X"/><use transform="matrix(0.04938271604938272,0,0,0.04938271604938272,38.32098765432099,0)" xlink:href="#as"/><use transform="matrix(0.04938271604938272,0,0,0.04938271604938272,43.25925925925926,0)" xlink:href="#at"/></g><g id="I"><use transform="matrix(0.049382716049382706,0,0,0.049382716049382706,0,0)" xlink:href="#ac"/><use transform="matrix(0.049382716049382706,0,0,0.049382716049382706,6.913580246913579,0)" xlink:href="#Y"/><use transform="matrix(0.049382716049382706,0,0,0.049382716049382706,16.79012345679012,0)" xlink:href="#Z"/><use transform="matrix(0.049382716049382706,0,0,0.049382716049382706,26.66666666666666,0)" xlink:href="#an"/><use transform="matrix(0.049382716049382706,0,0,0.049382716049382706,31.604938271604933,0)" xlink:href="#Y"/><use transform="matrix(0.049382716049382706,0,0,0.049382716049382706,41.48148148148147,0)" xlink:href="#Z"/><use transform="matrix(0.049382716049382706,0,0,0.049382716049382706,51.35802469135801,0)" xlink:href="#ao"/><use transform="matrix(0.049382716049382706,0,0,0.049382716049382706,61.234567901234556,0)" xlink:href="#Y"/></g><g id="J"><use transform="matrix(0.049382716049382706,0,0,0.049382716049382706,0,0)" xlink:href="#X"/><use transform="matrix(0.049382716049382706,0,0,0.049382716049382706,5.876543209876542,0)" xlink:href="#as"/><use transform="matrix(0.049382716049382706,0,0,0.049382716049382706,10.814814814814813,0)" xlink:href="#at"/></g><g id="K"><use transform="matrix(0.06172839506172839,0,0,0.06172839506172839,0,0)" xlink:href="#aO"/><use transform="matrix(0.06172839506172839,0,0,0.06172839506172839,11.11111111111111,0)" xlink:href="#aG"/><use transform="matrix(0.06172839506172839,0,0,0.06172839506172839,23.45679012345679,0)" xlink:href="#aM"/><use transform="matrix(0.06172839506172839,0,0,0.06172839506172839,41.91358024691358,0)" xlink:href="#aM"/><use transform="matrix(0.06172839506172839,0,0,0.06172839506172839,60.37037037037037,0)" xlink:href="#aJ"/><use transform="matrix(0.06172839506172839,0,0,0.06172839506172839,65.24691358024691,0)" xlink:href="#aH"/></g><g id="L"><use transform="matrix(0.06172839506172839,0,0,0.06172839506172839,0,0)" xlink:href="#aG"/><use transform="matrix(0.06172839506172839,0,0,0.06172839506172839,12.345679012345679,0)" xlink:href="#aN"/></g><g id="M"><use transform="matrix(0.06172839506172839,0,0,0.06172839506172839,0,0)" xlink:href="#aQ"/><use transform="matrix(0.06172839506172839,0,0,0.06172839506172839,12.345679012345679,0)" xlink:href="#aA"/><use transform="matrix(0.06172839506172839,0,0,0.06172839506172839,19.691358024691358,0)" xlink:href="#aD"/><use transform="matrix(0.06172839506172839,0,0,0.06172839506172839,32.03703703703704,0)" xlink:href="#aN"/><use transform="matrix(0.06172839506172839,0,0,0.06172839506172839,44.382716049382715,0)" xlink:href="#aO"/><use transform="matrix(0.06172839506172839,0,0,0.06172839506172839,55.49382716049382,0)" xlink:href="#aF"/></g><g id="N"><use transform="matrix(0.06172839506172839,0,0,0.06172839506172839,0,0)" xlink:href="#aQ"/><use transform="matrix(0.06172839506172839,0,0,0.06172839506172839,12.345679012345679,0)" xlink:href="#aA"/><use transform="matrix(0.06172839506172839,0,0,0.06172839506172839,19.691358024691358,0)" xlink:href="#aD"/><use transform="matrix(0.06172839506172839,0,0,0.06172839506172839,32.03703703703704,0)" xlink:href="#aN"/><use transform="matrix(0.06172839506172839,0,0,0.06172839506172839,44.382716049382715,0)" xlink:href="#aO"/><use transform="matrix(0.06172839506172839,0,0,0.06172839506172839,55.49382716049382,0)" xlink:href="#aF"/></g><g id="O"><use transform="matrix(0.06172839506172839,0,0,0.06172839506172839,0,0)" xlink:href="#aG"/><use transform="matrix(0.06172839506172839,0,0,0.06172839506172839,12.345679012345679,0)" xlink:href="#aI"/><use transform="matrix(0.06172839506172839,0,0,0.06172839506172839,18.08641975308642,0)" xlink:href="#aI"/></g><g id="P"><use transform="matrix(0.06172839506172839,0,0,0.06172839506172839,0,0)" xlink:href="#aI"/><use transform="matrix(0.06172839506172839,0,0,0.06172839506172839,6.172839506172839,0)" xlink:href="#aD"/><use transform="matrix(0.06172839506172839,0,0,0.06172839506172839,18.51851851851852,0)" xlink:href="#aE"/><use transform="matrix(0.06172839506172839,0,0,0.06172839506172839,29.62962962962963,0)" xlink:href="#aH"/></g><path fill="#333" d="M206 0h-36l-40-164L89 0H53L-1-190h32L70-26l43-164h34l41 164 42-164h31" id="aW"/><g id="Q"><use transform="matrix(0.06172839506172839,0,0,0.06172839506172839,0,0)" xlink:href="#aI"/><use transform="matrix(0.06172839506172839,0,0,0.06172839506172839,6.172839506172839,0)" xlink:href="#aG"/><use transform="matrix(0.06172839506172839,0,0,0.06172839506172839,18.51851851851852,0)" xlink:href="#aA"/><use transform="matrix(0.06172839506172839,0,0,0.06172839506172839,25.864197530864196,0)" xlink:href="#aW"/><use transform="matrix(0.06172839506172839,0,0,0.06172839506172839,41.85185185185185,0)" xlink:href="#aD"/><use transform="matrix(0.06172839506172839,0,0,0.06172839506172839,54.197530864197525,0)" xlink:href="#aA"/><use transform="matrix(0.06172839506172839,0,0,0.06172839506172839,61.5432098765432,0)" xlink:href="#aP"/></g><g id="R"><use transform="matrix(0.06172839506172839,0,0,0.06172839506172839,0,0)" xlink:href="#aM"/><use transform="matrix(0.06172839506172839,0,0,0.06172839506172839,18.456790123456788,0)" xlink:href="#aB"/><use transform="matrix(0.06172839506172839,0,0,0.06172839506172839,30.80246913580247,0)" xlink:href="#aA"/><use transform="matrix(0.06172839506172839,0,0,0.06172839506172839,38.148148148148145,0)" xlink:href="#aS"/><use transform="matrix(0.06172839506172839,0,0,0.06172839506172839,50.49382716049382,0)" xlink:href="#aB"/></g><g id="S"><use transform="matrix(0.06172839506172839,0,0,0.06172839506172839,0,0)" xlink:href="#aA"/><use transform="matrix(0.06172839506172839,0,0,0.06172839506172839,7.345679012345679,0)" xlink:href="#aB"/><use transform="matrix(0.06172839506172839,0,0,0.06172839506172839,19.691358024691358,0)" xlink:href="#aS"/><use transform="matrix(0.06172839506172839,0,0,0.06172839506172839,32.03703703703704,0)" xlink:href="#aR"/><use transform="matrix(0.06172839506172839,0,0,0.06172839506172839,44.382716049382715,0)" xlink:href="#aC"/><use transform="matrix(0.06172839506172839,0,0,0.06172839506172839,49.25925925925926,0)" xlink:href="#aD"/><use transform="matrix(0.06172839506172839,0,0,0.06172839506172839,61.60493827160494,0)" xlink:href="#aA"/></g><path fill="#333" d="M179-190L93 31C79 59 56 82 12 73V49c39 6 53-20 64-50L1-190h34L92-34l54-156h33" id="aX"/><g id="T"><use transform="matrix(0.06172839506172839,0,0,0.06172839506172839,0,0)" xlink:href="#aO"/><use transform="matrix(0.06172839506172839,0,0,0.06172839506172839,11.11111111111111,0)" xlink:href="#aF"/><use transform="matrix(0.06172839506172839,0,0,0.06172839506172839,23.45679012345679,0)" xlink:href="#aB"/><use transform="matrix(0.06172839506172839,0,0,0.06172839506172839,35.80246913580247,0)" xlink:href="#aA"/><use transform="matrix(0.06172839506172839,0,0,0.06172839506172839,43.148148148148145,0)" xlink:href="#aA"/><use transform="matrix(0.06172839506172839,0,0,0.06172839506172839,50.49382716049382,0)" xlink:href="#aX"/></g><path fill="#333" d="M143 0L79-87 56-68V0H24v-261h32v163l83-92h37l-77 82L181 0h-38" id="aY"/><g id="U"><use transform="matrix(0.06172839506172839,0,0,0.06172839506172839,0,0)" xlink:href="#aT"/><use transform="matrix(0.06172839506172839,0,0,0.06172839506172839,12.345679012345679,0)" xlink:href="#aJ"/><use transform="matrix(0.06172839506172839,0,0,0.06172839506172839,17.22222222222222,0)" xlink:href="#aO"/><use transform="matrix(0.06172839506172839,0,0,0.06172839506172839,28.333333333333332,0)" xlink:href="#aY"/></g><g id="V"><use transform="matrix(0.06172839506172839,0,0,0.06172839506172839,0,0)" xlink:href="#aM"/><use transform="matrix(0.06172839506172839,0,0,0.06172839506172839,18.456790123456788,0)" xlink:href="#aD"/><use transform="matrix(0.06172839506172839,0,0,0.06172839506172839,30.80246913580247,0)" xlink:href="#aE"/><use transform="matrix(0.06172839506172839,0,0,0.06172839506172839,41.91358024691358,0)" xlink:href="#aH"/><use transform="matrix(0.06172839506172839,0,0,0.06172839506172839,48.086419753086425,0)" xlink:href="#aB"/><use transform="matrix(0.06172839506172839,0,0,0.06172839506172839,60.4320987654321,0)" xlink:href="#aA"/></g><path fill="#333" d="M220-157c-53 9-28 100-34 157h-49v-107c1-27-5-49-29-50C55-147 81-57 75 0H25l-1-190h47c2 12-1 28 3 38 10-53 101-56 108 0 13-22 24-43 59-42 82 1 51 116 57 194h-49v-107c-1-25-5-48-29-50" id="aZ"/><g id="W"><use transform="matrix(0.04938271604938272,0,0,0.04938271604938272,0,0)" xlink:href="#aZ"/><use transform="matrix(0.04938271604938272,0,0,0.04938271604938272,15.80246913580247,0)" xlink:href="#Z"/><use transform="matrix(0.04938271604938272,0,0,0.04938271604938272,25.679012345679016,0)" xlink:href="#ao"/><use transform="matrix(0.04938271604938272,0,0,0.04938271604938272,35.55555555555556,0)" xlink:href="#aa"/><use transform="matrix(0.04938271604938272,0,0,0.04938271604938272,41.4320987654321,0)" xlink:href="#Y"/><use transform="matrix(0.04938271604938272,0,0,0.04938271604938272,51.308641975308646,0)" xlink:href="#ac"/></g></defs></g></svg>