<svg xmlns="http://www.w3.org/2000/svg" xmlns:xlink="http://www.w3.org/1999/xlink" version="1.1" width="256" height="256" viewBox="0 0 256 256" xml:space="preserve">

<defs>
</defs>
<g style="stroke: none; stroke-width: 0; stroke-dasharray: none; stroke-linecap: butt; stroke-linejoin: miter; stroke-miterlimit: 10; fill: none; fill-rule: nonzero; opacity: 1;" transform="translate(1.4065934065934016 1.4065934065934016) scale(2.81 2.81)" >
	<path d="M 80.89 78.772 H 9.11 c -5.023 0 -9.11 -4.087 -9.11 -9.11 V 20.338 c 0 -5.023 4.087 -9.11 9.11 -9.11 h 71.78 c 5.023 0 9.11 4.087 9.11 9.11 v 49.324 C 90 74.686 85.913 78.772 80.89 78.772 z M 9.11 17.228 c -1.715 0 -3.11 1.396 -3.11 3.11 v 49.324 c 0 1.715 1.395 3.11 3.11 3.11 h 71.78 c 1.715 0 3.11 -1.396 3.11 -3.11 V 20.338 c 0 -1.715 -1.396 -3.11 -3.11 -3.11 H 9.11 z" style="stroke: none; stroke-width: 1; stroke-dasharray: none; stroke-linecap: butt; stroke-linejoin: miter; stroke-miterlimit: 10; fill: rgb(0,0,0); fill-rule: nonzero; opacity: 1;" transform=" matrix(1 0 0 1 0 0) " stroke-linecap="round" />
	<path d="M 45 55.427 c -5.408 0 -10.599 -2.292 -14.242 -6.288 L 2.493 18.125 l 4.435 -4.042 l 28.265 31.013 c 2.545 2.792 6.028 4.331 9.807 4.331 c 3.779 0 7.262 -1.538 9.808 -4.331 l 28.266 -31.013 l 4.434 4.042 L 59.241 49.138 C 55.599 53.135 50.408 55.427 45 55.427 z" style="stroke: none; stroke-width: 1; stroke-dasharray: none; stroke-linecap: butt; stroke-linejoin: miter; stroke-miterlimit: 10; fill: rgb(0,0,0); fill-rule: nonzero; opacity: 1;" transform=" matrix(1 0 0 1 0 0) " stroke-linecap="round" />
	<rect x="-0.96" y="57.16" rx="0" ry="0" width="38.98" height="6" style="stroke: none; stroke-width: 1; stroke-dasharray: none; stroke-linecap: butt; stroke-linejoin: miter; stroke-miterlimit: 10; fill: rgb(0,0,0); fill-rule: nonzero; opacity: 1;" transform=" matrix(0.7053 -0.7089 0.7089 0.7053 -37.1881 30.8639) "/>
	<rect x="68.47" y="40.67" rx="0" ry="0" width="6" height="38.98" style="stroke: none; stroke-width: 1; stroke-dasharray: none; stroke-linecap: butt; stroke-linejoin: miter; stroke-miterlimit: 10; fill: rgb(0,0,0); fill-rule: nonzero; opacity: 1;" transform=" matrix(0.709 -0.7053 0.7053 0.709 -21.628 67.9146) "/>
</g>
</svg>