<svg xmlns="http://www.w3.org/2000/svg" xmlns:xlink="http://www.w3.org/1999/xlink" version="1.1" width="256" height="256" viewBox="0 0 256 256" xml:space="preserve">

<defs>
</defs>
<g style="stroke: none; stroke-width: 0; stroke-dasharray: none; stroke-linecap: butt; stroke-linejoin: miter; stroke-miterlimit: 10; fill: none; fill-rule: nonzero; opacity: 1;" transform="translate(1.4065934065934016 1.4065934065934016) scale(2.81 2.81)" >
	<path d="M 28.304 81.572 c 33.964 0 52.537 -28.138 52.537 -52.537 c 0 -0.8 -0.016 -1.595 -0.053 -2.387 c 3.605 -2.606 6.739 -5.858 9.212 -9.561 c -3.309 1.47 -6.869 2.46 -10.604 2.907 c 3.812 -2.286 6.739 -5.903 8.119 -10.214 c -3.569 2.115 -7.519 3.654 -11.724 4.482 c -3.37 -3.589 -8.168 -5.834 -13.478 -5.834 c -10.198 0 -18.468 8.27 -18.468 18.464 c 0 1.449 0.162 2.858 0.479 4.21 C 28.978 30.33 15.37 22.982 6.264 11.81 c -1.587 2.728 -2.501 5.899 -2.501 9.281 c 0 6.406 3.26 12.061 8.217 15.37 c -3.029 -0.093 -5.874 -0.925 -8.363 -2.31 c -0.004 0.077 -0.004 0.154 -0.004 0.235 c 0 8.944 6.366 16.409 14.814 18.102 c -1.551 0.422 -3.183 0.649 -4.868 0.649 c -1.19 0 -2.347 -0.118 -3.471 -0.333 c 2.351 7.336 9.167 12.674 17.25 12.825 c -6.321 4.953 -14.282 7.904 -22.933 7.904 c -1.49 0 -2.96 -0.085 -4.405 -0.256 C 8.172 78.515 17.875 81.572 28.304 81.572" style="stroke: none; stroke-width: 1; stroke-dasharray: none; stroke-linecap: butt; stroke-linejoin: miter; stroke-miterlimit: 10; fill: rgb(0,0,0); fill-rule: nonzero; opacity: 1;" transform=" matrix(1 0 0 1 0 0) " stroke-linecap="round" />
</g>
</svg>