<?xml version="1.0" encoding="utf-8"?>
<!-- Generator: Adobe Illustrator 26.0.1, SVG Export Plug-In . SVG Version: 6.00 Build 0)  -->
<svg version="1.1" id="Layer_1" xmlns="http://www.w3.org/2000/svg" xmlns:xlink="http://www.w3.org/1999/xlink" x="0px" y="0px"
	 viewBox="0 0 1000.0001831 293.5350037" style="enable-background:new 0 0 1000.0001831 293.5350037;" xml:space="preserve">
<style type="text/css">
	.st0{opacity:0.8;fill:#FFFFFF;}
	.st1{fill:#FFFFFF;}
	.st2{opacity:0.8;}
	.st3{fill:#254C84;}
	.st4{fill:#0C2351;}
	.st5{fill:#BAF419;}
	.st6{fill:#00CE7C;}
	.st7{fill:none;}
	.st8{fill:#2F96D0;}
	.st9{fill:#1B3964;}
	.st10{fill:none;stroke:#2F96D0;stroke-width:0;stroke-linecap:round;stroke-linejoin:round;}
</style>
<polygon class="st3" points="229.9322662,125.096138 221.1637421,147.3405151 292.3886719,147.3405151 146.1943665,1.1462715 
	146.1943665,125.096138 "/>
<polygon class="st4" points="116.9741898,30.3663292 0,147.3405151 70.2879868,147.3405151 "/>
<polygon class="st5" points="174.8191528,264.9099731 292.3886719,147.3405151 221.1637421,147.3405151 "/>
<polygon class="st6" points="146.1943665,166.9629517 62.4563942,166.9629517 70.2879868,147.3405151 0,147.3405151 
	146.1943665,293.5350037 146.1943665,167.9319 "/>
<g>
	<path class="st7" d="M751.2166748,31.4888992c0-4.816433-1.3758545-8.4856319-4.3571167-10.7788963
		c-2.9812622-2.2933865-7.7976074-3.439537-14.6776733-3.439537h-10.7788696v28.6664124h12.3843384
		c5.5032349,0,9.8613281-1.1471138,12.8425903-3.6690788C749.6112061,39.744751,751.2166748,36.3052139,751.2166748,31.4888992z"/>
	<path class="st7" d="M606.2872925,167.1315002c-15.9805908,0-20.8442383,15.7489624-20.8442383,31.9611053v2.547821h40.0672607
		v-6.715683C625.5103149,179.1748199,620.4150391,167.1315002,606.2872925,167.1315002z"/>
	<path class="st7" d="M785.0786743,167.1315002c-15.9805908,0-20.8432617,15.7489624-20.8432617,31.9611053v2.547821h40.0672607
		v-6.715683C804.3026733,179.1748199,799.2073975,167.1315002,785.0786743,167.1315002z"/>
	<polygon class="st8" points="385.657135,64.7423248 359.9719543,64.7423248 359.9719543,38.8275414 346.8996582,38.8275414 
		346.8996582,77.584938 385.657135,77.584938 	"/>
	<polygon class="st9" points="359.7425232,25.7553768 398.7296448,25.7553768 398.7296448,64.7424393 392.3078003,64.7424393 
		392.3078003,77.5850601 411.5722656,77.5850601 411.5722656,12.9127579 346.8999023,12.9127579 346.8999023,32.1771698 
		359.7425232,32.1771698 	"/>
	<polygon class="st9" points="476.7032471,61.0734825 448.4949951,61.0734825 448.4949951,13.6009054 428.7723694,13.6009054 
		428.7723694,77.3556366 476.7032471,77.3556366 	"/>
	<polygon class="st9" points="504.9112244,53.0462151 530.3677979,53.0462151 530.3677979,37.9103279 504.9112244,37.9103279 
		504.9112244,29.8840237 534.7249146,29.8840237 534.7249146,13.6009054 485.1885681,13.6009054 485.1885681,77.3556366 
		504.9112244,77.3556366 	"/>
	<polygon class="st8" points="585.4077759,73.4572601 554.2182617,73.4572601 554.2182617,45.9369965 583.5726318,45.9369965 
		583.5726318,41.8084717 554.2182617,41.8084717 554.2182617,17.4991665 585.4077759,17.4991665 585.4077759,13.371603 
		549.6315918,13.371603 549.6315918,77.8143616 585.4077759,77.8143616 	"/>
	<path class="st8" d="M604.4425659,36.0756683c0-3.4404984,0-8.4856319-0.458252-15.3656654h0.458252l38.7574463,57.1043587
		h4.586792V13.371603h-4.3571167v41.9684753c0,4.8153496,0.2286377,9.8613281,0.458252,15.1360016h-0.2296143L604.9008789,13.371603
		h-4.586731v64.4427567h4.128418V36.0756683z"/>
	<polygon class="st8" points="701.9096069,73.4572601 670.7200928,73.4572601 670.7200928,45.9369965 700.0744629,45.9369965 
		700.0744629,41.8084717 670.7200928,41.8084717 670.7200928,17.4991665 701.9096069,17.4991665 701.9096069,13.371603 
		666.1333618,13.371603 666.1333618,77.8143616 701.9096069,77.8143616 	"/>
	<path class="st8" d="M759.7021484,77.8142395l-17.6589355-29.3543129
		c4.8153687-1.3758163,8.2558594-3.4404984,10.5492554-6.4219131c2.293396-2.9811707,3.4395142-6.6503716,3.4395142-11.0074787
		c0-5.9635468-1.8340454-10.3205318-5.7329102-13.3018246c-3.8988037-2.9812927-9.8613281-4.3571072-17.8885498-4.3571072
		h-15.5942993v64.4426346h4.586792V49.8357391h16.0534668l16.7414551,27.9785004H759.7021484z M733.7873535,45.9368782h-12.3843384
		V17.2704659h10.7788696c6.8800659,0,11.6964111,1.1461506,14.6776733,3.439537
		c2.9812622,2.2932644,4.3571167,5.9624634,4.3571167,10.7788963c0,4.8163147-1.6054688,8.2558517-4.586731,10.7789001
		C743.6486816,44.7897644,739.2905884,45.9368782,733.7873535,45.9368782z"/>
	<path class="st8" d="M798.9177246,77.3556366c7.7976074,0,14.6776123-1.3758163,20.869751-3.8988647V44.7902451h-23.3917847
		v3.6691971h19.03479v22.2457047c-4.12854,1.6053543-8.9448242,2.5230484-14.9073486,2.5230484
		c-9.1734619,0-16.0535278-2.2935028-20.6402588-7.1098175c-4.8153076-4.8163147-7.1087036-11.9250488-7.1087036-21.3281326
		c0-8.4855118,2.5220337-15.3655491,7.3383789-20.6402264s11.4667358-7.7976055,19.9523315-7.7976055
		c5.9625244,0,11.6954346,1.3768978,17.199646,3.8987427l1.835022-3.8987427
		c-5.5042114-2.521965-11.9260254-3.8977795-18.8050537-3.8977795c-6.421814,0-12.1547241,1.3758144-17.2006836,4.1274433
		c-5.0450439,2.7516289-8.7141724,6.4217911-11.4668579,11.4668045c-2.5219116,4.8163147-3.8987427,10.5492363-3.8987427,16.9710274
		c0,10.3195686,2.7526245,18.1172943,8.0272217,23.8500938C781.0300903,74.6040115,788.8276978,77.3556366,798.9177246,77.3556366z"
		/>
	<polygon class="st8" points="848.4542236,77.3556366 853.0408936,77.3556366 853.0408936,52.588089 874.5986938,13.3713627 
		869.7823486,13.3713627 850.7476196,48.4595642 831.9424438,13.3713627 826.6677246,13.3713627 848.4542236,53.0463333 	"/>
	<polygon class="st6" points="373.3025818,202.7982483 432.5928345,202.7982483 432.5928345,180.5643463 373.3025818,180.5643463 
		373.3025818,134.7071075 436.2984924,134.7071075 436.2984924,112.4731979 346.8999023,112.4731979 346.8999023,277.838623 
		438.1513062,277.838623 438.1513062,255.6047058 373.3025818,255.6047058 	"/>
	<polygon class="st6" points="499.752594,244.4877472 499.2893982,244.4877472 471.2654724,112.4731979 443.2415771,112.4731979 
		482.1507874,277.838623 515.7332153,277.838623 557.4216309,112.4731979 529.3977661,112.4731979 	"/>
	<path class="st4" d="M606.5189209,149.9930115c-39.1408691,0-46.0889893,34.7401581-46.0889893,67.3963776
		c0,57.6689606,25.2446899,63.6907501,45.6257324,63.6907501c27.0975342,0,43.7729492-17.3702087,43.7729492-44.9300537h-23.6235352
		c0,7.4103394-2.0844116,27.7922668-19.9177856,27.7922668c-18.7598267,0-20.8442383-21.307312-20.8442383-37.9828644v-7.1795959
		h65.0803223v-13.2023315C650.5233765,170.8371582,641.2592773,149.9930115,606.5189209,149.9930115z M625.5103149,201.6404266
		h-40.0672607v-2.547821c0-16.2121429,4.8636475-31.9611053,20.8442383-31.9611053
		c14.1277466,0,19.2230225,12.0433197,19.2230225,27.7932434V201.6404266z"/>
	<path class="st4" d="M696.6103516,172.689743h-0.4632568v-19.4546204h-25.0130615v124.6032562h25.0130615V203.262146
		c0-23.1602631,13.6646118-28.2554474,25.0130615-28.2554474c4.1688843,0,8.5693359,0.9253998,10.4221802,1.3888092v-25.4763794
		c-1.6212769-0.4622192-3.2424316-0.9263611-6.0216675-0.9263611
		C711.4328613,149.9927673,702.1688232,158.7945709,696.6103516,172.689743z"/>
	<path class="st4" d="M785.3102417,149.9930115c-39.1398315,0-46.0888672,34.7401581-46.0888672,67.3963776
		c0,57.6689606,25.2456055,63.6907501,45.6266479,63.6907501c27.0974731,0,43.7728882-17.3702087,43.7728882-44.9300537h-23.6234741
		c0,7.4103394-2.0844116,27.7922668-19.9187622,27.7922668c-18.7598267,0-20.8432617-21.307312-20.8432617-37.9828644v-7.1795959
		h65.0802612v-13.2023315C829.3156738,170.8371582,820.0516357,149.9930115,785.3102417,149.9930115z M804.3026733,201.6404266
		h-40.0672607v-2.547821c0-16.2121429,4.8626709-31.9611053,20.8432617-31.9611053
		c14.1287231,0,19.223999,12.0433197,19.223999,27.7932434V201.6404266z"/>
	<path class="st4" d="M902.9628906,207.1990356l-15.9805298-5.5583649
		c-13.201416-4.6320038-17.6027832-8.5693665-17.6027832-18.2967834c0-11.5800171,7.8745117-16.2121429,17.833374-16.2121429
		c12.9707642,0,16.4448242,9.2632904,16.4448242,19.2231445v3.2424774h23.6234131v-5.5585938
		c0-15.5172577-7.1796875-34.0464783-38.9102783-34.0464783c-25.7078857,0-42.6138306,10.8852386-42.6138306,34.278183
		c0,19.9177856,7.8734131,29.4135132,26.6333008,35.8984528l20.382019,7.1795959
		c8.8008423,3.0107727,13.6635742,9.032547,13.6635742,18.2965546c0,11.3484192-6.7165527,18.29776-20.380127,18.29776
		c-14.3602295,0-19.4555664-7.8756714-19.4555664-22.2348785v-3.9373627h-22.2328491v4.6320038
		c0,24.0878143,9.4957275,38.6777496,40.9936523,38.6777496c25.2437134,0,44.6983643-11.3474426,44.6983643-37.9828644
		C930.0594482,223.4114075,921.4911499,213.4522705,902.9628906,207.1990356z"/>
	<path class="st4" d="M1000.0001831,171.7643433v-18.5292206h-20.380127v-35.4351578h-25.0131226v35.4351578h-17.1384888v18.5292206
		h17.1384888v77.3554077c0,25.4761353,8.3377686,30.1081543,25.2446899,30.1081543
		c7.8735352,0,14.8226318-0.6948853,20.1485596-2.0844116v-18.5282593
		c-2.3150635,0.4634094-5.3259277,0.6948853-9.0316162,0.6948853c-8.5692139,0-11.3485107-3.4749146-11.3485107-13.2023468
		v-74.3434296H1000.0001831z"/>
</g>
</svg>
